<?xml version="1.0" encoding="utf-8"?>
<!-- Generator: Adobe Illustrator 19.0.0, SVG Export Plug-In . SVG Version: 6.00 Build 0)  -->
<svg version="1.1" id="Layer_1" xmlns="http://www.w3.org/2000/svg" xmlns:xlink="http://www.w3.org/1999/xlink" x="0px" y="0px"
	 viewBox="251 209.9 1114.1 374.1" style="enable-background:new 251 209.9 1114.1 374.1;" xml:space="preserve">
<style type="text/css">
	.st0{stroke:#FFFFFF;stroke-miterlimit:10;}
</style>
<g>
	<path class="st0" d="M430.1,338.9c-13.5,0-20.9,13.8-24.7,25v11.6C435.3,362.4,430.1,338.9,430.1,338.9z M405.8,399.9v13.8
		c28.8-13.1,23.9-36.3,23.9-36.3c-12.7-0.7-20.2,11.6-23.9,22.4l0,0V399.9z M405.8,436.9v13.8c28.8-13.1,23.9-36.3,23.9-36.3
		c-12.7,0-20.2,12-23.9,22.4l0,0V436.9z M405.8,472v13.8c28.8-13.1,23.9-36.3,23.9-36.3c-12.7,0-20.2,12-23.9,22.4l0,0V472z
		 M402.4,229c-28,99.1-115.1,71-115.1,71v134.9c0,82.2,115.1,105,115.1,105s115.1-22.8,115.1-105V300.1
		C517.5,300.1,428.9,330.4,402.4,229L402.4,229L402.4,229z M325.4,428.6v-92.7c0,0,54.2,20.2,74-34.8v60.6
		c-4.1-10.5-11.2-22.4-23.9-22.4c0,0-4.9,23.5,23.9,36.3v26.2c-3.7-10.8-11.2-24.7-24.7-24.7c0,0-4.9,23.9,24.7,36.6v25.4
		c-3.7-10.8-11.2-24.7-24.7-24.7c0,0-4.9,23.9,24.7,36.6v22.8c-3.7-10.8-11.2-24.7-24.7-24.7c0,0-4.9,23.9,24.7,36.6v11.6
		c-14.2-3-74-20.6-74-68.8l0,0V428.6z M479.4,428.6c0,48.6-59.8,65.8-74,69.9v-12c28.8-13.1,23.9-36.3,23.9-36.3
		c-12.7,0-20.2,12-23.9,22.4v-21.7c28.8-13.1,23.9-36.3,23.9-36.3c-12.7,0-20.2,12-23.9,22.4v-23.9c28.8-13.1,23.9-36.3,23.9-36.3
		c-12.7,0-20.2,12-23.9,22.4v-23.9c29.9-13.1,24.7-36.6,24.7-36.6c-13.5,0-20.9,13.8-24.7,25V302c17.9,53.8,74,32.9,74,32.9V428.6
		L479.4,428.6z"/>
	<path class="st0" d="M405.8,412.9v23.9c4.1-10.5,11.2-22.4,23.9-22.4c0,0,4.9,23.5-23.9,36.3V472c4.1-10.5,11.2-22.4,23.9-22.4
		c0,0,4.9,23.5-23.9,36.3v12c-2.2,0.4-3,0.7-3,0.7s-1.1-0.4-3-0.7v-11.6c-29.5-13.1-24.7-36.6-24.7-36.6c13.5,0,20.9,13.8,24.7,24.7
		v-22.8c-29.5-13.1-24.7-36.6-24.7-36.6c13.5,0,20.9,13.8,24.7,24.7v-25.4c-29.5-13.1-24.7-36.6-24.7-36.6
		c13.5,0,20.9,13.8,24.7,24.7v-26.2c-28.8-13.1-23.9-36.3-23.9-36.3c12.7,0,20.2,11.6,23.9,22.4v-60.6c1.1-3,2.2-6.4,3-10.1
		c0.7,4.1,1.5,7.8,3,11.2v61.7c3.7-10.8,11.2-25,24.7-25c0,0,4.9,23.9-24.7,36.6V400c4.1-10.5,11.2-22.4,23.9-22.4
		c-0.4-0.7,4.9,22.8-23.9,35.5V412.9L405.8,412.9z"/>
	<g>
		<path class="st0" d="M405.8,412.9c-0.7,0.4-1.5,0.7-3,1.1c-0.3,0-0.5,0.1-0.7,0.4c-0.4,0-0.4,0.4-0.7,0.4v-0.4
			c0-0.7,0.4-2.2,0.7-3.4c0.7-3,1.5-7.1,3.4-11.2c4.1-10.5,11.2-22.4,23.9-22.4c0-0.7,5.2,22.8-23.5,35.5l0,0L405.8,412.9z"/>
		<path class="st0" d="M405.8,450.7c-0.7,0.4-1.5,0.7-3,1.1c-0.3,0-0.5,0.1-0.7,0.4c-0.4,0-0.4,0.4-0.7,0.4v-0.4
			c0-0.7,0.4-2.2,0.7-3.4c0.7-3,1.5-7.1,3.4-11.2c4.1-10.5,11.2-22.4,23.9-22.4c0-0.7,5.2,22.4-23.5,35.5l0,0H405.8z"/>
		<path class="st0" d="M405.8,485.8c-0.7,0.4-1.5,0.7-3,1.1c-0.3,0-0.5,0.1-0.7,0.4c-0.4,0-0.4,0.4-0.7,0.4v-0.4
			c0-0.7,0.4-2.2,0.7-3.4c0.7-3,1.5-7.1,3.4-11.2c4.1-10.5,11.2-22.4,23.9-22.4c0-0.7,5.2,22.4-23.5,35.5l0,0H405.8z"/>
		<path class="st0" d="M402.8,415.2c-0.4,0-0.4-0.4-0.7-0.4s-0.4,0-0.7-0.4c-0.7-0.4-1.1-0.4-2.2-0.7
			c-29.5-13.1-24.7-36.6-24.7-36.6c13.5,0,20.9,13.8,24.7,24.7c1.1,3.7,2.2,7.1,2.6,9.7c0.4,1.5,0.4,3,0.7,3.4
			c0.4,0,0.4,0.4,0.4,0.4L402.8,415.2L402.8,415.2z"/>
		<path class="st0" d="M405.8,375.6c-0.4,0.4-1.1,0.4-2.2,0.7c-0.3,0-0.5,0.1-0.7,0.4c-0.4,0-0.4,0.4-0.7,0.4v-0.4
			c0-0.7,0.4-2.2,0.7-3.4c0.4-2.6,1.1-5.6,2.6-9.3c3.7-10.8,11.2-25,24.7-25c0,0,5.2,23.5-24.3,36.6H405.8L405.8,375.6z"/>
		<path class="st0" d="M403.5,376.7c-0.4,0-0.4-0.4-0.7-0.4c-0.3,0-0.4,0-0.7-0.4c-0.7-0.4-2.2-0.7-3-1.1
			c-28.8-13.1-23.9-36.3-23.9-36.3c12.7,0,20.2,11.6,23.9,22.4c1.5,4.5,3,8.6,3.4,11.6c0.4,1.5,0.4,3,0.7,3.4l0.4,0.7l0,0
			L403.5,376.7z"/>
		<path class="st0" d="M402.8,452.2c-0.4,0-0.4-0.4-0.7-0.4s-0.4,0-0.7-0.4c-0.7-0.4-1.1-0.4-2.2-0.7
			c-29.5-13.1-24.7-36.6-24.7-36.6c13.5,0,20.9,13.8,24.7,24.7c1.1,3.7,2.2,7.1,2.6,9.3c0.4,1.5,0.4,3,0.7,3.4l0.4,0.7H402.8z"/>
		<path class="st0" d="M402.8,487.7c-0.4,0-0.4-0.4-0.7-0.4s-0.4,0-0.7-0.4c-0.7-0.4-1.1-0.4-2.2-0.7
			c-29.5-13.1-24.7-36.6-24.7-36.6c13.5,0,20.9,13.8,24.7,24.7c1.1,3.7,2.2,7.1,2.6,9.7c0.4,1.5,0.4,3,0.7,3.4
			c0.4,0,0.4,0.4,0.4,0.4h-0.1V487.7z"/>
		<rect x="399.4" y="290.7" class="st0" width="6" height="207.4"/>
	</g>
</g>
<g>
	<g>
		<path class="st0" d="M586.2,336.2h-16.7l-3.6,11.3h-10l16.5-47.4h11.7l16.5,47.4h-10.7L586.2,336.2L586.2,336.2z M571.7,328.5
			h12.4l-5.9-18.6h-0.6L571.7,328.5z"/>
		<path class="st0" d="M648.8,336.7c-1,2.5-2.4,4.7-4.2,6.5c-1.8,1.8-4,3.1-6.6,4.1c-2.6,1-5.5,1.4-8.8,1.4c-3.3,0-6.7-0.6-9.5-1.7
			c-2.8-1.1-5.2-2.8-7.1-4.9c-2-2.1-3.5-4.8-4.5-7.9c-1.1-3.1-1.6-6.6-1.6-10.5c0-3.9,0.5-7.3,1.6-10.3c1.1-3.1,2.6-5.7,4.5-7.8
			s4.3-3.8,7.1-5c2.8-1.2,5.9-1.7,9.3-1.7c3.4,0,5.4,0.4,7.8,1.2c2.4,0.8,4.5,1.9,6.3,3.3c1.8,1.4,3.3,3.1,4.5,5.2
			c1.2,2,1.9,4.3,2.3,6.7H640c-0.7-2.4-2.1-4.3-4-5.6c-1.9-1.3-4.2-2-7-2s-3.6,0.4-5.2,1.1c-1.5,0.7-2.8,1.8-3.9,3.2
			c-1.1,1.4-1.9,3.1-2.4,5c-0.6,2-0.9,4.2-0.9,6.7s0.3,4.8,0.9,6.8s1.4,3.7,2.5,5.1c1.1,1.4,2.4,2.5,4,3.2s3.3,1.1,5.3,1.1
			s3.1-0.2,4.5-0.7s2.5-1.1,3.5-1.9s1.7-1.8,2.3-3c0.6-1.2,0.9-2.5,0.9-3.9v-0.9h-10.3V322h19.9v6c0,3.2-0.5,6-1.5,8.6L648.8,336.7z
			"/>
		<path class="st0" d="M669.7,347.5h-9.9v-47.4h19.9c2.6,0,5,0.4,7,1.1c2.1,0.7,3.8,1.7,5.3,3c1.5,1.3,2.6,2.9,3.3,4.8
			c0.8,1.9,1.2,4,1.2,6.4s-0.2,3-0.6,4.4c-0.4,1.4-0.9,2.7-1.7,3.8c-0.7,1.2-1.6,2.2-2.7,3.1c-1.1,0.9-2.3,1.6-3.6,2.2l10,18.7
			h-11.2l-8.8-17.2h-8.1v17.2L669.7,347.5z M669.7,322.7h8.7c2.5,0,4.5-0.6,5.8-1.9c1.3-1.3,2.1-3.1,2.1-5.4s-0.2-2.1-0.6-3
			s-0.9-1.7-1.6-2.3c-0.7-0.6-1.5-1.1-2.5-1.5c-1-0.3-2.1-0.5-3.3-0.5h-8.6C669.7,308.1,669.7,322.7,669.7,322.7z"/>
		<path class="st0" d="M706.5,347.5v-47.4h9.9v47.4H706.5z"/>
		<path class="st0" d="M748.1,348.7c-3.4,0-6.5-0.6-9.3-1.7c-2.7-1.1-5.1-2.8-7-4.9c-1.9-2.1-3.4-4.8-4.4-7.9
			c-1-3.1-1.5-6.6-1.5-10.4c0-3.8,0.5-7.3,1.5-10.4s2.5-5.7,4.4-7.8c1.9-2.1,4.2-3.8,7-4.9c2.7-1.2,5.8-1.7,9.3-1.7s5.4,0.4,7.9,1.3
			c2.4,0.9,4.6,2.1,6.4,3.7c1.8,1.6,3.3,3.5,4.4,5.6c1.1,2.2,1.8,4.5,1.9,7.1H759c-0.2-1.4-0.7-2.6-1.3-3.7
			c-0.6-1.1-1.4-2.1-2.4-2.9c-1-0.8-2-1.4-3.3-1.8c-1.2-0.4-2.5-0.6-3.9-0.6s-3.5,0.4-5,1.1c-1.5,0.7-2.8,1.8-3.8,3.2
			c-1.1,1.4-1.9,3.1-2.4,5.1c-0.6,2-0.8,4.2-0.8,6.7s0.3,4.7,0.8,6.8c0.6,2,1.4,3.7,2.4,5.1c1.1,1.4,2.3,2.5,3.8,3.2
			c1.5,0.8,3.2,1.1,5.1,1.1c1.9,0,2.7-0.2,4-0.6c1.2-0.4,2.3-1,3.3-1.7c0.9-0.7,1.7-1.6,2.4-2.7c0.6-1.1,1.1-2.2,1.3-3.5h9.7
			c-0.2,2.6-0.8,4.9-2,7c-1.1,2.1-2.6,3.9-4.4,5.5c-1.8,1.5-3.9,2.7-6.4,3.5c-2.4,0.8-5.1,1.3-7.9,1.3L748.1,348.7z"/>
		<path class="st0" d="M787.9,330.1c0,1.5,0.2,2.8,0.7,4c0.4,1.2,1.1,2.2,1.9,3.1c0.8,0.9,1.9,1.5,3.1,2c1.2,0.5,2.6,0.7,4.2,0.7
			s3-0.2,4.3-0.7c1.2-0.5,2.3-1.1,3.1-2s1.5-1.9,1.9-3.1c0.4-1.2,0.7-2.6,0.7-4v-30h9.9v31.1c0,2.6-0.5,5-1.4,7.2
			c-0.9,2.2-2.3,4-4,5.6c-1.7,1.5-3.8,2.7-6.3,3.6c-2.4,0.8-5.2,1.3-8.2,1.3s-5.8-0.4-8.2-1.3c-2.5-0.8-4.5-2-6.3-3.6
			c-1.7-1.5-3-3.4-4-5.6c-0.9-2.2-1.4-4.6-1.4-7.2v-31.1h9.9L787.9,330.1L787.9,330.1z"/>
		<path class="st0" d="M860.3,347.5h-31v-47.4h9.9v38.8h21.1V347.5z"/>
		<path class="st0" d="M880.8,347.5v-38.9h-14.2v-8.5H905v8.5h-14.2v38.9H880.8L880.8,347.5z"/>
		<path class="st0" d="M923.7,330.1c0,1.5,0.2,2.8,0.7,4c0.4,1.2,1.1,2.2,1.9,3.1c0.8,0.9,1.9,1.5,3.1,2s2.6,0.7,4.2,0.7
			s3-0.2,4.3-0.7c1.2-0.5,2.3-1.1,3.1-2s1.5-1.9,1.9-3.1c0.4-1.2,0.7-2.6,0.7-4v-30h9.9v31.1c0,2.6-0.5,5-1.4,7.2
			c-0.9,2.2-2.3,4-4,5.6c-1.7,1.5-3.8,2.7-6.3,3.6c-2.4,0.8-5.2,1.3-8.2,1.3s-5.8-0.4-8.2-1.3c-2.5-0.8-4.5-2-6.3-3.6
			c-1.7-1.5-3-3.4-4-5.6c-0.9-2.2-1.4-4.6-1.4-7.2v-31.1h9.9L923.7,330.1L923.7,330.1z"/>
		<path class="st0" d="M975,347.5h-9.9v-47.4H985c2.6,0,5,0.4,7,1.1c2.1,0.7,3.8,1.7,5.3,3c1.4,1.3,2.6,2.9,3.3,4.8
			c0.8,1.9,1.2,4,1.2,6.4s-0.2,3-0.6,4.4c-0.4,1.4-0.9,2.7-1.7,3.8c-0.7,1.2-1.6,2.2-2.7,3.1c-1.1,0.9-2.3,1.6-3.6,2.2l10,18.7H992
			l-8.8-17.2h-8.1v17.2L975,347.5z M975,322.7h8.7c2.5,0,4.5-0.6,5.8-1.9c1.3-1.3,2.1-3.1,2.1-5.4s-0.2-2.1-0.6-3
			c-0.4-0.9-0.9-1.7-1.6-2.3c-0.7-0.6-1.5-1.1-2.5-1.5c-1-0.3-2.1-0.5-3.3-0.5H975L975,322.7L975,322.7z"/>
		<path class="st0" d="M1038.7,336.2H1022l-3.6,11.3h-10l16.5-47.4h11.7l16.5,47.4h-10.7l-3.6-11.3H1038.7z M1024.2,328.5h12.4
			l-5.9-18.6h-0.6L1024.2,328.5z"/>
		<path class="st0" d="M1092.1,347.5h-31v-47.4h9.9v38.8h21.1V347.5z"/>
	</g>
	<g>
		<path class="st0" d="M586.2,416.9h-16.7l-3.6,11.3h-10l16.5-47.4h11.7l16.5,47.4h-10.7L586.2,416.9L586.2,416.9z M571.7,409.2
			h12.4l-5.9-18.6h-0.6L571.7,409.2z"/>
		<path class="st0" d="M608.6,428.2v-47.4h8.3l21.8,29.5h0.6v-29.5h9.5v47.4h-8.2l-21.9-29.7h-0.6v29.7L608.6,428.2L608.6,428.2z"/>
		<path class="st0" d="M679,380.7c3.5,0,6.7,0.5,9.4,1.6c2.8,1,5.1,2.6,7,4.6c1.9,2,3.3,4.5,4.3,7.4c1,2.9,1.5,6.2,1.5,9.9
			c0,3.7-0.5,7.3-1.5,10.3s-2.4,5.5-4.3,7.5c-1.9,2-4.2,3.6-7,4.7c-2.8,1.1-5.9,1.6-9.5,1.6h-18.7v-47.5L679,380.7L679,380.7z
			 M670.3,419.7h7.2c4.4,0,7.8-1.3,10.2-3.9c2.4-2.6,3.5-6.4,3.5-11.5c0-5.1-0.3-4.5-0.9-6.4c-0.6-1.9-1.5-3.5-2.7-4.7
			c-1.2-1.3-2.6-2.3-4.3-2.9c-1.7-0.7-3.6-1-5.8-1h-7.2v30.5L670.3,419.7z"/>
		<path class="st0" d="M759.4,428.2H728v-47.4h31.4v8.5h-21.5v11.1h20.3v7.9h-20.3v11.5h21.5V428.2L759.4,428.2z"/>
		<path class="st0" d="M769.8,428.2v-47.4h8.3l21.8,29.5h0.6v-29.5h9.5v47.4h-8.2l-21.9-29.7h-0.6v29.7L769.8,428.2L769.8,428.2z"/>
		<path class="st0" d="M834.2,428.2l-16-47.4h11.2l10.8,36.2h0.6l10.6-36.2h10.7l-15.8,47.4L834.2,428.2L834.2,428.2z"/>
		<path class="st0" d="M870.1,428.2v-47.4h9.9v47.4L870.1,428.2L870.1,428.2z"/>
		<path class="st0" d="M901.4,428.2h-9.9v-47.4h19.9c2.6,0,5,0.4,7,1.1c2.1,0.7,3.8,1.7,5.3,3c1.4,1.3,2.6,2.9,3.3,4.8
			c0.8,1.9,1.2,4,1.2,6.4c0,2.4-0.2,3-0.6,4.4c-0.4,1.4-0.9,2.7-1.7,3.8c-0.7,1.2-1.6,2.2-2.7,3.1s-2.3,1.6-3.6,2.2l10,18.7h-11.2
			l-8.8-17.2h-8.1v17.2L901.4,428.2z M901.4,403.4h8.7c2.5,0,4.5-0.6,5.8-1.9s2.1-3.1,2.1-5.4s-0.2-2.1-0.6-3
			c-0.4-0.9-0.9-1.7-1.6-2.3c-0.7-0.6-1.5-1.1-2.5-1.5c-1-0.3-2.1-0.5-3.3-0.5h-8.6L901.4,403.4L901.4,403.4z"/>
		<path class="st0" d="M958.9,379.6c3.5,0,6.7,0.6,9.5,1.7c2.8,1.2,5.2,2.8,7.2,5c2,2.1,3.5,4.8,4.6,7.8c1.1,3.1,1.6,6.5,1.6,10.4
			c0,3.9-0.5,7.3-1.6,10.4c-1.1,3.1-2.6,5.7-4.5,7.8c-2,2.1-4.4,3.8-7.2,5s-6,1.7-9.5,1.7s-6.7-0.6-9.5-1.7c-2.8-1.2-5.2-2.8-7.2-5
			c-2-2.1-3.5-4.8-4.6-7.8s-1.6-6.5-1.6-10.4c0-3.9,0.5-7.3,1.6-10.4c1.1-3.1,2.6-5.7,4.6-7.9c2-2.2,4.4-3.8,7.2-5
			C952.3,380,955.5,379.5,958.9,379.6L958.9,379.6z M958.9,388.3c-1.9,0-3.7,0.4-5.2,1.1c-1.6,0.8-2.9,1.8-4,3.2
			c-1.1,1.4-2,3.1-2.6,5.1s-0.9,4.2-0.9,6.7s0.3,4.7,0.9,6.7c0.6,2,1.4,3.7,2.5,5.1c1.1,1.4,2.4,2.5,4,3.3s3.3,1.2,5.3,1.2
			s3.7-0.4,5.2-1.2c1.6-0.8,2.9-1.9,4-3.3c1.1-1.4,2-3.1,2.5-5.1c0.6-2,0.9-4.2,0.9-6.7s-0.3-4.7-0.9-6.7c-0.6-2-1.4-3.7-2.5-5.1
			c-1.1-1.4-2.4-2.5-4-3.2S960.8,388.3,958.9,388.3z"/>
		<path class="st0" d="M991.1,428.2v-47.4h8.3l21.8,29.5h0.6v-29.5h9.5v47.4h-8.2l-21.9-29.7h-0.6v29.7L991.1,428.2L991.1,428.2z"/>
		<path class="st0" d="M1042.8,428.2v-47.4h11.7l13.1,31.9h0.6l13.1-31.9h11.7v47.4h-9.2v-31.7h-0.5l-12.1,29h-6.6l-12.1-29h-0.5
			v31.7L1042.8,428.2L1042.8,428.2z"/>
		<path class="st0" d="M1135.9,428.2h-31.4v-47.4h31.4v8.5h-21.5v11.1h20.3v7.9h-20.3v11.5h21.5V428.2L1135.9,428.2z"/>
		<path class="st0" d="M1146.4,428.2v-47.4h8.3l21.8,29.5h0.6v-29.5h9.5v47.4h-8.2l-21.9-29.7h-0.6v29.7L1146.4,428.2L1146.4,428.2z
			"/>
		<path class="st0" d="M1209.6,428.2v-38.9h-14.2v-8.5h38.4v8.5h-14.2v38.9L1209.6,428.2L1209.6,428.2z"/>
		<path class="st0" d="M1269.4,416.9h-16.7l-3.6,11.3h-10l16.5-47.4h11.7l16.5,47.4h-10.7L1269.4,416.9L1269.4,416.9z M1254.9,409.2
			h12.4l-5.9-18.6h-0.6L1254.9,409.2z"/>
		<path class="st0" d="M1322.8,428.2h-31v-47.4h9.9v38.8h21.1V428.2z"/>
	</g>
	<g>
		<path class="st0" d="M559.4,509v-47.4h11.7l13.1,31.9h0.6l13.1-31.9h11.7V509h-9.2v-31.7h-0.5l-12.1,29h-6.6l-12.1-29h-0.5V509
			H559.4z"/>
		<path class="st0" d="M641.8,460.4c3.5,0,6.7,0.6,9.5,1.7c2.8,1.2,5.2,2.8,7.2,5c2,2.1,3.5,4.8,4.6,7.8c1.1,3.1,1.6,6.5,1.6,10.4
			s-0.5,7.3-1.6,10.4c-1.1,3.1-2.6,5.7-4.5,7.8c-2,2.1-4.4,3.8-7.2,5c-2.8,1.2-6,1.7-9.5,1.7s-6.7-0.6-9.5-1.7
			c-2.8-1.2-5.2-2.8-7.2-5c-2-2.1-3.5-4.8-4.6-7.8s-1.6-6.5-1.6-10.4s0.5-7.3,1.6-10.4s2.6-5.7,4.6-7.9c2-2.2,4.4-3.8,7.2-5
			c2.8-1.2,6-1.7,9.4-1.7V460.4z M641.8,469.1c-1.9,0-3.7,0.4-5.2,1.1c-1.6,0.8-2.9,1.8-4,3.2c-1.1,1.4-2,3.1-2.6,5.1
			c-0.6,2-0.9,4.2-0.9,6.7s0.3,4.7,0.9,6.7c0.6,2,1.4,3.7,2.5,5.1c1.1,1.4,2.4,2.5,4,3.3c1.6,0.8,3.3,1.2,5.3,1.2s3.7-0.4,5.2-1.2
			c1.6-0.8,2.9-1.9,4-3.3c1.1-1.4,2-3.1,2.5-5.1c0.6-2,0.9-4.2,0.9-6.7s-0.3-4.7-0.9-6.7c-0.6-2-1.4-3.7-2.5-5.1
			c-1.1-1.4-2.4-2.5-4-3.2C645.4,469.4,643.7,469.1,641.8,469.1L641.8,469.1z"/>
		<path class="st0" d="M692.6,461.5c3.5,0,6.7,0.5,9.4,1.6c2.8,1,5.1,2.6,7,4.6s3.3,4.5,4.3,7.4s1.5,6.2,1.5,9.9s-0.5,7.3-1.5,10.3
			s-2.4,5.5-4.3,7.5s-4.2,3.6-7,4.7s-5.9,1.6-9.5,1.6h-18.7v-47.5h18.7L692.6,461.5z M683.9,500.5h7.2c4.4,0,7.8-1.3,10.2-3.9
			c2.4-2.6,3.5-6.4,3.5-11.5s-0.3-4.5-0.9-6.4s-1.5-3.5-2.7-4.7c-1.2-1.3-2.6-2.3-4.3-2.9c-1.7-0.7-3.6-1-5.8-1h-7.2v30.5V500.5z"/>
		<path class="st0" d="M755.7,509h-31.4v-47.4h31.4v8.5h-21.5v11.1h20.3v7.9h-20.3v11.5h21.5v8.5V509z"/>
		<path class="st0" d="M797.1,509h-31v-47.4h9.9v38.8h21.1V509z"/>
		<path class="st0" d="M837.2,509h-31v-47.4h9.9v38.8h21.1V509z"/>
		<path class="st0" d="M846.2,509v-47.4h9.9V509H846.2z"/>
		<path class="st0" d="M867.6,509v-47.4h8.3l21.8,29.5h0.6v-29.5h9.5V509h-8.2l-21.9-29.7h-0.6V509H867.6L867.6,509z"/>
		<path class="st0" d="M959.5,498.2c-1,2.5-2.4,4.7-4.2,6.5s-4,3.1-6.6,4.1s-5.5,1.4-8.8,1.4s-6.7-0.6-9.5-1.7s-5.2-2.8-7.1-4.9
			c-2-2.1-3.5-4.8-4.5-7.9c-1.1-3.1-1.6-6.6-1.6-10.5s0.5-7.3,1.6-10.3c1.1-3.1,2.6-5.7,4.5-7.8c2-2.1,4.3-3.8,7.1-5
			s5.9-1.7,9.3-1.7s5.4,0.4,7.8,1.2s4.5,1.9,6.3,3.3c1.8,1.4,3.3,3.1,4.5,5.2c1.2,2,1.9,4.3,2.3,6.7h-9.9c-0.7-2.4-2.1-4.3-4-5.6
			c-1.9-1.3-4.2-2-7-2s-3.6,0.4-5.2,1.1c-1.5,0.7-2.8,1.8-3.9,3.2c-1.1,1.4-1.9,3.1-2.4,5c-0.6,2-0.9,4.2-0.9,6.7s0.3,4.8,0.9,6.8
			c0.6,2,1.4,3.7,2.5,5.1s2.4,2.5,4,3.2s3.3,1.1,5.3,1.1s3.1-0.2,4.5-0.7s2.5-1.1,3.5-1.9s1.7-1.8,2.3-3s0.9-2.5,0.9-3.9V491h-10.3
			v-7.5h19.9v6c0,3.2-0.5,6-1.5,8.6L959.5,498.2z"/>
	</g>
</g>
</svg>
