<?xml version="1.0" encoding="utf-8"?>
<!-- Generator: Adobe Illustrator 19.0.0, SVG Export Plug-In . SVG Version: 6.00 Build 0)  -->
<svg version="1.1" id="Layer_1" xmlns="http://www.w3.org/2000/svg" xmlns:xlink="http://www.w3.org/1999/xlink" x="0px" y="0px"
	 viewBox="-104 346 402 102" style="enable-background:new -104 346 402 102;" xml:space="preserve">
<style type="text/css">
	.st0{fill:#FFFFFF;}
	.st1{enable-background:new    ;}
</style>
<g>
	<g>
		<path class="st0" d="M-55.4,379.9c-3.6,0-5.6,3.7-6.6,6.7v3.1C-54,386.3-55.4,379.9-55.4,379.9z M-61.9,396.3v3.7
			c7.7-3.5,6.4-9.7,6.4-9.7C-58.9,390-60.9,393.3-61.9,396.3z M-61.9,406.1v3.7c7.7-3.5,6.4-9.7,6.4-9.7
			C-58.9,400.1-60.9,403.3-61.9,406.1z M-61.9,415.5v3.7c7.7-3.5,6.4-9.7,6.4-9.7C-58.9,409.5-60.9,412.8-61.9,415.5z M-62.8,350.5
			c-7.5,26.5-30.8,19-30.8,19s0,14.1,0,36.1s30.8,28.1,30.8,28.1s30.8-6.1,30.8-28.1s0-36.1,0-36.1S-55.7,377.6-62.8,350.5z
			 M-83.4,403.9c0-14.7,0-24.8,0-24.8s14.5,5.4,19.8-9.3v16.2c-1.1-2.8-3-6-6.4-6c0,0-1.3,6.3,6.4,9.7v7c-1-2.9-3-6.6-6.6-6.6
			c0,0-1.3,6.4,6.6,9.8v6.8c-1-2.9-3-6.6-6.6-6.6c0,0-1.3,6.4,6.6,9.8v6.1c-1-2.9-3-6.6-6.6-6.6c0,0-1.3,6.4,6.6,9.8v3.1
			C-67.4,421.5-83.4,416.8-83.4,403.9z M-42.2,403.9c0,13-16,17.6-19.8,18.7v-3.2c7.7-3.5,6.4-9.7,6.4-9.7c-3.4,0-5.4,3.2-6.4,6
			v-5.8c7.7-3.5,6.4-9.7,6.4-9.7c-3.4,0-5.4,3.2-6.4,6v-6.4c7.7-3.5,6.4-9.7,6.4-9.7c-3.4,0-5.4,3.2-6.4,6v-6.4
			c8-3.5,6.6-9.8,6.6-9.8c-3.6,0-5.6,3.7-6.6,6.7v-16.5c4.8,14.4,19.8,8.8,19.8,8.8S-42.2,389.1-42.2,403.9z"/>
		<path class="st0" d="M-61.9,399.8v6.4c1.1-2.8,3-6,6.4-6c0,0,1.3,6.3-6.4,9.7v5.7c1.1-2.8,3-6,6.4-6c0,0,1.3,6.3-6.4,9.7v3.2
			c-0.6,0.1-0.8,0.2-0.8,0.2s-0.3-0.1-0.8-0.2v-3.1c-7.9-3.5-6.6-9.8-6.6-9.8c3.6,0,5.6,3.7,6.6,6.6v-6.1c-7.9-3.5-6.6-9.8-6.6-9.8
			c3.6,0,5.6,3.7,6.6,6.6v-6.8c-7.9-3.5-6.6-9.8-6.6-9.8c3.6,0,5.6,3.7,6.6,6.6v-7c-7.7-3.5-6.4-9.7-6.4-9.7c3.4,0,5.4,3.1,6.4,6
			V370c0.3-0.8,0.6-1.7,0.8-2.7c0.2,1.1,0.4,2.1,0.8,3v16.5c1-2.9,3-6.7,6.6-6.7c0,0,1.3,6.4-6.6,9.8v6.4c1.1-2.8,3-6,6.4-6
			C-55.6,390-54.2,396.3-61.9,399.8z"/>
		<g>
			<path class="st0" d="M-61.9,399.8c-0.2,0.1-0.4,0.2-0.8,0.3c-0.1,0-0.1,0-0.2,0.1c-0.1,0-0.1,0.1-0.2,0.1v-0.1
				c0-0.2,0.1-0.6,0.2-0.9c0.2-0.8,0.4-1.9,0.9-3c1.1-2.8,3-6,6.4-6C-55.6,390-54.2,396.3-61.9,399.8z"/>
			<path class="st0" d="M-61.9,409.8c-0.2,0.1-0.4,0.2-0.8,0.3c-0.1,0-0.1,0-0.2,0.1c-0.1,0-0.1,0.1-0.2,0.1v-0.1
				c0-0.2,0.1-0.6,0.2-0.9c0.2-0.8,0.4-1.9,0.9-3c1.1-2.8,3-6,6.4-6C-55.6,400.1-54.2,406.3-61.9,409.8z"/>
			<path class="st0" d="M-61.9,419.3c-0.2,0.1-0.4,0.2-0.8,0.3c-0.1,0-0.1,0-0.2,0.1c-0.1,0-0.1,0.1-0.2,0.1v-0.1
				c0-0.2,0.1-0.6,0.2-0.9c0.2-0.8,0.4-1.9,0.9-3c1.1-2.8,3-6,6.4-6C-55.6,409.5-54.2,415.8-61.9,419.3z"/>
			<path class="st0" d="M-62.7,400.3c-0.1,0-0.1-0.1-0.2-0.1s-0.1,0-0.2-0.1c-0.2-0.1-0.3-0.1-0.6-0.2c-7.9-3.5-6.6-9.8-6.6-9.8
				c3.6,0,5.6,3.7,6.6,6.6c0.3,1,0.6,1.9,0.7,2.6c0.1,0.4,0.1,0.8,0.2,0.9C-62.7,400.3-62.7,400.3-62.7,400.3z"/>
			<path class="st0" d="M-61.9,389.8c-0.1,0.1-0.3,0.1-0.6,0.2c-0.1,0-0.1,0-0.2,0.1c-0.1,0-0.1,0.1-0.2,0.1v-0.1
				c0-0.2,0.1-0.6,0.2-0.9c0.1-0.7,0.3-1.5,0.7-2.5c1-2.9,3-6.7,6.6-6.7C-55.4,379.9-54,386.3-61.9,389.8z"/>
			<path class="st0" d="M-62.5,390c-0.1,0-0.1-0.1-0.2-0.1s-0.1,0-0.2-0.1c-0.2-0.1-0.6-0.2-0.8-0.3c-7.7-3.5-6.4-9.7-6.4-9.7
				c3.4,0,5.4,3.1,6.4,6c0.4,1.2,0.8,2.3,0.9,3.1c0.1,0.4,0.1,0.8,0.2,0.9C-62.5,390-62.5,390-62.5,390z"/>
			<path class="st0" d="M-62.7,410.3c-0.1,0-0.1-0.1-0.2-0.1s-0.1,0-0.2-0.1c-0.2-0.1-0.3-0.1-0.6-0.2c-7.9-3.5-6.6-9.8-6.6-9.8
				c3.6,0,5.6,3.7,6.6,6.6c0.3,1,0.6,1.9,0.7,2.5c0.1,0.4,0.1,0.8,0.2,0.9C-62.7,410.3-62.7,410.3-62.7,410.3z"/>
			<path class="st0" d="M-62.7,419.8c-0.1,0-0.1-0.1-0.2-0.1s-0.1,0-0.2-0.1c-0.2-0.1-0.3-0.1-0.6-0.2c-7.9-3.5-6.6-9.8-6.6-9.8
				c3.6,0,5.6,3.7,6.6,6.6c0.3,1,0.6,1.9,0.7,2.6c0.1,0.4,0.1,0.8,0.2,0.9C-62.7,419.6-62.7,419.8-62.7,419.8z"/>
			<rect x="-63.6" y="367" class="st0" width="1.6" height="55.5"/>
		</g>
	</g>
</g>
<g class="st1">
	<path class="st0" d="M-22.5,373.8h2.2v15.6h-2.2V373.8z M-21.5,373.8h8.8v2.1h-8.8C-21.5,375.9-21.5,373.8-21.5,373.8z
		 M-21.5,380.8h7.6v2.1h-7.6V380.8z"/>
	<path class="st0" d="M-7.9,388.8c-0.8-0.5-1.5-1.2-1.9-2c-0.5-0.9-0.7-1.9-0.7-3v-4.4c0-1.1,0.2-2.2,0.7-3c0.5-0.9,1.1-1.5,1.9-2
		c0.8-0.5,1.8-0.7,2.9-0.7s2,0.2,2.9,0.7c0.8,0.5,1.5,1.2,1.9,2c0.5,0.9,0.7,1.9,0.7,3v4.4c0,1.1-0.2,2.2-0.7,3
		c-0.5,0.9-1.1,1.5-1.9,2c-0.8,0.5-1.8,0.7-2.9,0.7S-7.1,389.3-7.9,388.8z M-3.4,387c0.5-0.3,0.9-0.7,1.1-1.2
		c0.3-0.5,0.4-1.2,0.4-1.9v-4.6c0-0.7-0.1-1.3-0.4-1.9c-0.3-0.5-0.6-0.9-1.1-1.2c-0.5-0.3-1.1-0.4-1.7-0.4s-1.2,0.1-1.7,0.4
		c-0.5,0.3-0.9,0.7-1.1,1.2c-0.3,0.5-0.4,1.2-0.4,1.9v4.6c0,0.7,0.1,1.3,0.4,1.9c0.3,0.5,0.6,0.9,1.1,1.2c0.5,0.3,1.1,0.4,1.7,0.4
		S-3.8,387.3-3.4,387z"/>
	<path class="st0" d="M5.8,388.8c-0.8-0.5-1.5-1.2-1.9-2c-0.5-0.9-0.7-1.9-0.7-3v-4.4c0-1.1,0.2-2.2,0.7-3c0.5-0.9,1.1-1.5,1.9-2
		s1.8-0.7,2.9-0.7s2,0.2,2.9,0.7c0.8,0.5,1.5,1.2,1.9,2c0.5,0.9,0.7,1.9,0.7,3v4.4c0,1.1-0.2,2.2-0.7,3c-0.5,0.9-1.1,1.5-1.9,2
		c-0.8,0.5-1.8,0.7-2.9,0.7S6.7,389.3,5.8,388.8z M10.4,387c0.5-0.3,0.9-0.7,1.1-1.2c0.3-0.5,0.4-1.2,0.4-1.9v-4.6
		c0-0.7-0.1-1.3-0.4-1.9c-0.3-0.5-0.6-0.9-1.1-1.2c-0.5-0.3-1.1-0.4-1.7-0.4c-0.6,0-1.2,0.1-1.7,0.4s-0.9,0.7-1.1,1.2
		c-0.3,0.5-0.4,1.2-0.4,1.9v4.6c0,0.7,0.1,1.3,0.4,1.9c0.3,0.5,0.6,0.9,1.1,1.2c0.5,0.3,1.1,0.4,1.7,0.4
		C9.3,387.4,9.9,387.3,10.4,387z"/>
	<path class="st0" d="M17.5,373.8h2.2v15.6h-2.2V373.8z M19,387.3h3.5c1.2,0,2-0.3,2.7-0.9c0.6-0.6,1-1.4,1-2.5v-4.6
		c0-1.1-0.3-1.9-1-2.5c-0.6-0.6-1.5-0.9-2.7-0.9H19v-2.1h3.5c1.3,0,2.3,0.2,3.2,0.7c0.9,0.4,1.6,1.1,2,1.9c0.5,0.8,0.7,1.8,0.7,3
		v4.4c0,1.2-0.2,2.2-0.7,3s-1.1,1.5-2,1.9s-2,0.7-3.2,0.7H19C19,389.4,19,387.3,19,387.3z"/>
	<path class="st0" d="M42.1,373.8H44l5.8,15.6h-2.4l-4.3-12.6l-4.3,12.6h-2.4L42.1,373.8z M39,383.9h8.2v2.1H39
		C39,386,39,383.9,39,383.9z"/>
	<path class="st0" d="M52.1,373.8h2l7.6,12.1l-0.3,0.3v-12.4h2.2v15.6h-2L54,377.5l0.3-0.3v12.2h-2.2
		C52.1,389.5,52.1,373.8,52.1,373.8z"/>
	<path class="st0" d="M67.5,373.8h2.2v15.6h-2.2V373.8z M69,387.3h3.5c1.2,0,2-0.3,2.7-0.9c0.6-0.6,1-1.4,1-2.5v-4.6
		c0-1.1-0.3-1.9-1-2.5c-0.6-0.6-1.5-0.9-2.7-0.9H69v-2.1h3.5c1.3,0,2.3,0.2,3.2,0.7c0.9,0.4,1.6,1.1,2,1.9c0.5,0.8,0.7,1.8,0.7,3
		v4.4c0,1.2-0.2,2.2-0.7,3s-1.1,1.5-2,1.9s-2,0.7-3.2,0.7H69C69,389.4,69,387.3,69,387.3z"/>
	<path class="st0" d="M87.9,373.8h2.2v15.6h-2.2V373.8z M88.9,373.8h9v2.1h-9V373.8z M88.9,380.6h7.8v2.1h-7.8V380.6z M88.9,387.3h9
		v2.1h-9V387.3z"/>
	<path class="st0" d="M104.5,389.5c0,0-0.4-0.2-1.2-0.7c-0.8-0.5-1.5-1.2-1.9-2s-0.7-1.9-0.7-3.1v-4.3c0-1.2,0.2-2.2,0.7-3.1
		s1.1-1.6,1.9-2c0.8-0.5,1.8-0.7,2.9-0.7c0.9,0,1.7,0.2,2.5,0.6s1.4,0.9,1.9,1.6s0.8,1.5,1,2.4h-2.2c-0.1-0.5-0.4-0.9-0.7-1.3
		c-0.3-0.4-0.7-0.7-1.1-0.9s-0.9-0.3-1.3-0.3c-0.6,0-1.2,0.2-1.7,0.5s-0.9,0.7-1.1,1.3c-0.3,0.6-0.4,1.2-0.4,1.9v4.3
		c0,0.7,0.1,1.4,0.4,1.9c0.3,0.6,0.6,1,1.1,1.3s1,0.5,1.7,0.5c0.5,0,0.9-0.1,1.3-0.3s0.8-0.5,1.1-0.9s0.5-0.8,0.7-1.4h2.2
		c-0.2,0.9-0.5,1.7-1,2.4c-0.5,0.7-1.1,1.2-1.9,1.6s-1.6,0.6-2.5,0.6C105.1,389.5,104.5,389.5,104.5,389.5z"/>
	<path class="st0" d="M116.5,388.8c-0.8-0.5-1.5-1.2-1.9-2c-0.5-0.9-0.7-1.9-0.7-3v-4.4c0-1.1,0.2-2.2,0.7-3c0.5-0.9,1.1-1.5,1.9-2
		s1.8-0.7,2.9-0.7s2,0.2,2.9,0.7c0.8,0.5,1.5,1.2,1.9,2c0.5,0.9,0.7,1.9,0.7,3v4.4c0,1.1-0.2,2.2-0.7,3c-0.5,0.9-1.1,1.5-1.9,2
		s-1.8,0.7-2.9,0.7S117.3,389.3,116.5,388.8z M121.1,387c0.5-0.3,0.9-0.7,1.1-1.2c0.3-0.5,0.4-1.2,0.4-1.9v-4.6
		c0-0.7-0.1-1.3-0.4-1.9c-0.3-0.5-0.6-0.9-1.1-1.2c-0.5-0.3-1.1-0.4-1.7-0.4s-1.2,0.1-1.7,0.4s-0.9,0.7-1.1,1.2
		c-0.3,0.5-0.4,1.2-0.4,1.9v4.6c0,0.7,0.1,1.3,0.4,1.9c0.3,0.5,0.6,0.9,1.1,1.2c0.5,0.3,1.1,0.4,1.7,0.4S120.6,387.3,121.1,387z"/>
	<path class="st0" d="M128.2,373.8h2.2v15.6h-2.2V373.8z M129.3,387.3h8.9v2.1h-8.9V387.3z"/>
	<path class="st0" d="M142.7,388.8c-0.8-0.5-1.5-1.2-1.9-2c-0.5-0.9-0.7-1.9-0.7-3v-4.4c0-1.1,0.2-2.2,0.7-3c0.5-0.9,1.1-1.5,1.9-2
		c0.8-0.5,1.8-0.7,2.9-0.7c1.1,0,2,0.2,2.9,0.7c0.8,0.5,1.5,1.2,1.9,2c0.5,0.9,0.7,1.9,0.7,3v4.4c0,1.1-0.2,2.2-0.7,3
		c-0.5,0.9-1.1,1.5-1.9,2s-1.8,0.7-2.9,0.7C144.4,389.5,143.5,389.3,142.7,388.8z M147.2,387c0.5-0.3,0.9-0.7,1.1-1.2
		c0.3-0.5,0.4-1.2,0.4-1.9v-4.6c0-0.7-0.1-1.3-0.4-1.9c-0.3-0.5-0.6-0.9-1.1-1.2c-0.5-0.3-1.1-0.4-1.7-0.4c-0.6,0-1.2,0.1-1.7,0.4
		s-0.9,0.7-1.1,1.2c-0.3,0.5-0.4,1.2-0.4,1.9v4.6c0,0.7,0.1,1.3,0.4,1.9c0.3,0.5,0.6,0.9,1.1,1.2c0.5,0.3,1.1,0.4,1.7,0.4
		C146.1,387.4,146.7,387.3,147.2,387z"/>
	<path class="st0" d="M164.8,381v2.7c0,1.2-0.2,2.2-0.7,3.1s-1.1,1.6-1.9,2.1s-1.8,0.7-2.9,0.7s-2.1-0.2-2.9-0.7s-1.5-1.1-1.9-1.9
		c-0.5-0.8-0.7-1.8-0.7-2.9v-4.6c0-1.2,0.2-2.2,0.7-3.1s1.1-1.6,1.9-2c0.8-0.5,1.8-0.7,2.9-0.7c0.9,0,1.7,0.2,2.5,0.6
		c0.8,0.4,1.4,0.9,1.9,1.6s0.9,1.5,1,2.4h-2.4c-0.1-0.5-0.3-1-0.7-1.3c-0.3-0.4-0.7-0.7-1.1-0.9c-0.4-0.2-0.8-0.3-1.3-0.3
		c-0.6,0-1.2,0.2-1.7,0.5s-0.9,0.7-1.1,1.3c-0.3,0.6-0.4,1.2-0.4,1.9v4.6c0,0.7,0.1,1.3,0.4,1.8s0.7,0.9,1.2,1.2s1.1,0.4,1.7,0.4
		s1.2-0.1,1.7-0.4s0.9-0.7,1.1-1.3c0.3-0.6,0.4-1.2,0.4-2v-0.7h-3.2v-2.1L164.8,381L164.8,381z"/>
	<path class="st0" d="M170.3,389.4h-2.2v-15.6h2.2V389.4z"/>
	<path class="st0" d="M177.7,389.5c0,0-0.4-0.2-1.2-0.7c-0.8-0.5-1.5-1.2-1.9-2s-0.7-1.9-0.7-3.1v-4.3c0-1.2,0.2-2.2,0.7-3.1
		s1.1-1.6,1.9-2c0.8-0.5,1.8-0.7,2.9-0.7c0.9,0,1.7,0.2,2.5,0.6c0.8,0.4,1.4,0.9,1.9,1.6s0.8,1.5,1,2.4h-2.2
		c-0.1-0.5-0.4-0.9-0.7-1.3c-0.3-0.4-0.7-0.7-1.1-0.9c-0.4-0.2-0.9-0.3-1.3-0.3c-0.6,0-1.2,0.2-1.7,0.5s-0.9,0.7-1.1,1.3
		c-0.3,0.6-0.4,1.2-0.4,1.9v4.3c0,0.7,0.1,1.4,0.4,1.9c0.3,0.6,0.6,1,1.1,1.3s1,0.5,1.7,0.5c0.5,0,0.9-0.1,1.3-0.3
		c0.4-0.2,0.8-0.5,1.1-0.9c0.3-0.4,0.5-0.8,0.7-1.4h2.2c-0.2,0.9-0.5,1.7-1,2.4c-0.5,0.7-1.1,1.2-1.9,1.6c-0.8,0.4-1.6,0.6-2.5,0.6
		C178.2,389.5,177.7,389.5,177.7,389.5z"/>
	<path class="st0" d="M191.4,373.8h1.9l5.8,15.6h-2.4l-4.3-12.6l-4.3,12.6h-2.4L191.4,373.8z M188.3,383.9h8.2v2.1h-8.2V383.9z"/>
	<path class="st0" d="M201.4,373.8h2.2v15.6h-2.2V373.8z M202.5,387.3h8.9v2.1h-8.9V387.3z"/>
</g>
<g class="st1">
	<path class="st0" d="M-19,417.5c0,0-0.3-0.1-1-0.2s-1.3-0.4-1.9-0.6c-0.6-0.3-1.1-7.6-1.6-8.1l1.4,5.3c0.6,0.5,1.2,0.9,2,1.2
		c0.7,0.3,1.5,0.4,2.3,0.4c1.1,0,2-0.2,2.6-0.6s0.9-1,0.9-1.8l0,0c0-0.5-0.1-1-0.4-1.3s-0.6-0.6-1.1-0.7c-0.4-0.2-1-0.3-1.7-0.4
		c0,0,0,0-0.1,0c0,0,0,0-0.1,0h-0.2c-1-0.2-1.9-0.4-2.6-0.6s-1.2-0.6-1.7-1.2s-0.7-1.4-0.7-2.6l0,0c0-1,0.2-1.8,0.6-2.5
		s1.1-1.2,1.9-1.6s1.8-0.5,3-0.5c0.6,0,1.1,0.1,1.6,0.2s1.1,0.3,1.6,0.5s1,0.5,1.6,0.9l-1.2,1.7c-0.6-0.4-1.2-0.8-1.8-1
		c-0.6-0.2-1.2-0.3-1.8-0.3c-1.1,0-1.9,0.2-2.5,0.6s-0.9,1-0.9,1.8l0,0c0,0.5,0.2,1,0.5,1.3s0.7,0.5,1.1,0.7
		c0.5,0.1,1.1,0.3,1.9,0.5h0.1h0.1h0.1h0.1c0.9,0.2,1.7,0.4,2.4,0.7s1.2,0.7,1.6,1.3c0.4,0.6,0.6,1.4,0.6,2.4l0,0
		c0,1-0.2,1.8-0.7,2.4c-0.5,0.7-1.1,1.2-2,1.5c-0.9,0.4-1.9,0.5-3.1,0.5C-18.6,417.5-19,417.5-19,417.5z"/>
	<path class="st0" d="M-4.3,411v6.3h-2.2V411l-4.8-9.3h2.4l3.4,7l3.4-7h2.4L-4.3,411z"/>
	<path class="st0" d="M5.4,417.5c0,0-0.3-0.1-1-0.2s-1.3-0.4-1.9-0.6c-0.6-0.3-1.1-0.6-1.6-1.1l1.4-1.7c0.6,0.5,1.2,0.9,2,1.2
		c0.7,0.3,1.5,0.4,2.3,0.4c1.1,0,2-0.2,2.6-0.6c0.6-0.4,0.9-1,0.9-1.8l0,0c0-0.5-0.1-1-0.4-1.3s-0.6-0.6-1.1-0.7
		c-0.4-0.2-1-0.3-1.7-0.4c0,0,0,0-0.1,0c0,0,0,0-0.1,0H6.5c-1-0.2-1.9-0.4-2.6-0.6s-1.2-0.6-1.7-1.2s-0.7-1.4-0.7-2.6l0,0
		c0-1,0.2-1.8,0.6-2.5s1.1-1.2,1.9-1.6s1.8-0.5,3-0.5c0.6,0,1.1,0.1,1.6,0.2s1.1,0.3,1.6,0.5s1,0.5,1.6,0.9l-1.2,1.7
		c-0.6-0.4-1.2-0.8-1.8-1c-0.6-0.2-1.2-0.3-1.8-0.3c-1.1,0-1.9,0.2-2.5,0.6s-0.9,1-0.9,1.8l0,0c0,0.5,0.2,1,0.5,1.3s0.7,0.5,1.1,0.7
		c0.5,0.1,1.1,0.3,1.9,0.5h0.1h0.1h0.1h0.1c0.9,0.2,1.7,0.4,2.4,0.7c0.7,0.3,1.2,0.7,1.6,1.3c0.4,0.6,0.6,1.4,0.6,2.4l0,0
		c0,1-0.2,1.8-0.7,2.4c-0.5,0.7-1.1,1.2-2,1.5c-0.9,0.4-1.9,0.5-3.1,0.5C5.8,417.5,5.4,417.5,5.4,417.5z"/>
	<path class="st0" d="M13.3,401.8h11v2.1h-11C13.3,403.9,13.3,401.8,13.3,401.8z M17.7,403h2.2v14.3h-2.2V403z"/>
	<path class="st0" d="M26.4,401.8h2.2v15.6h-2.2V401.8z M27.5,401.8h9v2.1h-9V401.8z M27.5,408.6h7.8v2.1h-7.8
		C27.5,410.8,27.5,408.6,27.5,408.6z M27.5,415.3h9v2.1h-9V415.3z"/>
	<path class="st0" d="M50.8,401.8h2.1v15.6h-2.1v-11.7l0.1,0.7l-3.8,8.8h-1.5l-3.8-8.6l0.1-0.9v11.7h-2.1v-15.6h2.1l4.6,10.3
		L50.8,401.8z"/>
	<path class="st0" d="M60.3,417.5c0,0-0.3-0.1-1-0.2s-1.3-0.4-1.9-0.6c-0.6-0.3-1.1-0.6-1.6-1.1l1.4-1.7c0.6,0.5,1.2,0.9,2,1.2
		c0.7,0.3,1.5,0.4,2.3,0.4c1.1,0,2-0.2,2.6-0.6c0.6-0.4,0.9-1,0.9-1.8l0,0c0-0.5-0.1-1-0.4-1.3s-0.6-0.6-1.1-0.7
		c-0.4-0.2-1-0.3-1.7-0.4c0,0,0,0-0.1,0c0,0,0,0-0.1,0h-0.2c-1-0.2-1.9-0.4-2.6-0.6c-0.7-0.2-1.2-0.6-1.7-1.2s-0.7-1.4-0.7-2.6l0,0
		c0-1,0.2-1.8,0.6-2.5c0.4-0.7,1.1-1.2,1.9-1.6c0.8-0.4,1.8-0.5,3-0.5c0.6,0,1.1,0.1,1.6,0.2s1.1,0.3,1.6,0.5s1,0.5,1.6,0.9
		l-1.2,1.7c-0.6-0.4-1.2-0.8-1.8-1c-0.6-0.2-1.2-0.3-1.8-0.3c-1.1,0-1.9,0.2-2.5,0.6s-0.9,1-0.9,1.8l0,0c0,0.5,0.2,1,0.5,1.3
		s0.7,0.5,1.1,0.7c0.5,0.1,1.1,0.3,1.9,0.5h0.1h0.1h0.1h0.1c0.9,0.2,1.7,0.4,2.4,0.7s1.2,0.7,1.6,1.3c0.4,0.6,0.6,1.4,0.6,2.4l0,0
		c0,1-0.2,1.8-0.7,2.4c-0.5,0.7-1.1,1.2-2,1.5c-0.9,0.4-1.9,0.5-3.1,0.5C60.7,417.5,60.3,417.5,60.3,417.5z"/>
	<path class="st0" d="M87.4,401.8h2.1v15.6h-2.1v-11.7l0.1,0.7l-3.8,8.8h-1.5l-3.8-8.6l0.1-0.9v11.7h-2.1v-15.6h2.1l4.6,10.3
		L87.4,401.8z"/>
	<path class="st0" d="M95.6,416.8c-0.8-0.5-1.5-1.2-1.9-2c-0.5-0.9-0.7-1.9-0.7-3v-4.4c0-1.1,0.2-2.2,0.7-3c0.5-0.9,1.1-1.5,1.9-2
		s1.8-0.7,2.9-0.7s2,0.2,2.9,0.7c0.8,0.5,1.5,1.2,1.9,2c0.5,0.9,0.7,1.9,0.7,3v4.4c0,1.1-0.2,2.2-0.7,3c-0.5,0.9-1.1,1.5-1.9,2
		s-1.8,0.7-2.9,0.7S96.4,417.3,95.6,416.8z M100.2,415c0.5-0.3,0.9-0.7,1.1-1.2c0.3-0.5,0.4-1.2,0.4-1.9v-4.6c0-0.7-0.1-1.3-0.4-1.9
		c-0.3-0.5-0.6-0.9-1.1-1.2c-0.5-0.3-1.1-0.4-1.7-0.4s-1.2,0.1-1.7,0.4s-0.9,0.7-1.1,1.2c-0.3,0.5-0.4,1.2-0.4,1.9v4.6
		c0,0.7,0.1,1.3,0.4,1.9c0.3,0.5,0.6,0.9,1.1,1.2c0.5,0.3,1.1,0.4,1.7,0.4S99.7,415.3,100.2,415z"/>
	<path class="st0" d="M107.3,401.8h2.2v15.6h-2.2V401.8z M108.8,415.3h3.5c1.2,0,2-0.3,2.7-0.9c0.6-0.6,1-1.4,1-2.5v-4.6
		c0-1.1-0.3-1.9-1-2.5c-0.6-0.6-1.5-0.9-2.7-0.9h-3.5v-2.1h3.5c1.3,0,2.3,0.2,3.2,0.7c0.9,0.4,1.6,1.1,2,1.9c0.5,0.8,0.7,1.8,0.7,3
		v4.4c0,1.2-0.2,2.2-0.7,3s-1.1,1.5-2,1.9s-2,0.7-3.2,0.7h-3.5V415.3z"/>
	<path class="st0" d="M121.5,401.8h2.2v15.6h-2.2V401.8z M122.6,401.8h9v2.1h-9V401.8z M122.6,408.6h7.8v2.1h-7.8V408.6z
		 M122.6,415.3h9v2.1h-9V415.3z"/>
	<path class="st0" d="M134.7,401.8h2.2v15.6h-2.2V401.8z M135.8,415.3h8.9v2.1h-8.9V415.3z"/>
	<path class="st0" d="M147.3,401.8h2.2v15.6h-2.2V401.8z M148.4,415.3h8.9v2.1h-8.9V415.3z"/>
	<path class="st0" d="M162.1,417.4h-2.2v-15.6h2.2V417.4z"/>
	<path class="st0" d="M166,401.8h2l7.6,12.1l-0.3,0.3v-12.4h2.2v15.6h-2l-7.6-11.9l0.3-0.3v12.2H166V401.8z"/>
	<path class="st0" d="M192,409v2.7c0,1.2-0.2,2.2-0.7,3.1s-1.1,1.6-1.9,2.1s-1.8,0.7-2.9,0.7s-2.1-0.2-2.9-0.7s-1.5-1.1-1.9-1.9
		c-0.5-0.8-0.7-1.8-0.7-2.9v-4.6c0-1.2,0.2-2.2,0.7-3.1s1.1-1.6,1.9-2c0.8-0.5,1.8-0.7,2.9-0.7c0.9,0,1.7,0.2,2.5,0.6
		c0.8,0.4,1.4,0.9,1.9,1.6s0.9,1.5,1,2.4h-2.4c-0.1-0.5-0.3-1-0.7-1.3c-0.3-0.4-0.7-0.7-1.1-0.9c-0.4-0.2-0.8-0.3-1.3-0.3
		c-0.6,0-1.2,0.2-1.7,0.5s-0.9,0.7-1.1,1.3c-0.3,0.6-0.4,1.2-0.4,1.9v4.6c0,0.7,0.1,1.3,0.4,1.8s0.7,0.9,1.2,1.2s1.1,0.4,1.7,0.4
		s1.2-0.1,1.7-0.4s0.9-0.7,1.1-1.3c0.3-0.6,0.4-1.2,0.4-2v-0.7h-3.2v-2.1L192,409L192,409z"/>
	<path class="st0" d="M201.6,417c-0.7-0.3-1.3-0.8-1.7-1.4l1.8-1.3c0.2,0.4,0.5,0.6,0.9,0.8c0.4,0.2,0.8,0.3,1.3,0.3
		c0.9,0,1.5-0.3,2-0.8s0.7-1.3,0.7-2.2v-10.6h2.2v10.7c0,1.1-0.2,2-0.6,2.8s-0.9,1.3-1.7,1.8c-0.8,0.5-1.6,0.4-2.6,0.4
		C203,417.5,202.3,417.4,201.6,417z"/>
	<path class="st0" d="M214.9,416.8c-0.8-0.5-1.5-1.2-1.9-2c-0.5-0.9-0.7-1.9-0.7-3v-4.4c0-1.1,0.2-2.2,0.7-3c0.5-0.9,1.1-1.5,1.9-2
		s1.8-0.7,2.9-0.7s2,0.2,2.9,0.7c0.8,0.5,1.5,1.2,1.9,2c0.5,0.9,0.7,1.9,0.7,3v4.4c0,1.1-0.2,2.2-0.7,3c-0.5,0.9-1.1,1.5-1.9,2
		c-0.8,0.5-1.8,0.7-2.9,0.7C216.7,417.5,215.7,417.3,214.9,416.8z M219.5,415c0.5-0.3,0.9-0.7,1.1-1.2c0.3-0.5,0.4-1.2,0.4-1.9v-4.6
		c0-0.7-0.1-1.3-0.4-1.9c-0.3-0.5-0.6-0.9-1.1-1.2c-0.5-0.3-1.1-0.4-1.7-0.4c-0.6,0-1.2,0.1-1.7,0.4s-0.9,0.7-1.1,1.2
		c-0.3,0.5-0.4,1.2-0.4,1.9v4.6c0,0.7,0.1,1.3,0.4,1.9c0.3,0.5,0.6,0.9,1.1,1.2c0.5,0.3,1.1,0.4,1.7,0.4
		C218.4,415.4,219,415.3,219.5,415z"/>
	<path class="st0" d="M228.7,416.9c-0.8-0.5-1.4-1.1-1.9-2c-0.4-0.9-0.6-1.9-0.6-3.1v-10h2.2v10c0,1.1,0.3,2,0.9,2.6
		s1.4,0.9,2.4,0.9c1.1,0,1.9-0.3,2.4-0.9s0.9-1.5,0.9-2.6v-10h2.2v10c0,1.2-0.2,2.3-0.6,3.1c-0.4,0.9-1.1,1.5-1.9,2s-1.8,0.7-3,0.7
		C230.5,417.5,229.5,417.3,228.7,416.9z"/>
	<path class="st0" d="M240.6,401.8h2.2v15.6h-2.2V401.8z M241.5,408.8h5.3c0.4,0,0.8-0.1,1.1-0.3c0.3-0.2,0.6-0.5,0.7-0.9
		c0.2-0.4,0.3-0.8,0.3-1.3s-0.1-0.9-0.3-1.3c-0.2-0.4-0.4-0.7-0.7-0.9c-0.3-0.2-0.7-0.3-1.1-0.3h-5.3v-2.1h5.2
		c0.9,0,1.7,0.2,2.4,0.6c0.7,0.4,1.2,0.9,1.6,1.6s0.6,1.5,0.6,2.4s-0.2,1.7-0.6,2.4c-0.4,0.7-0.9,1.2-1.6,1.6s-1.5,0.6-2.4,0.6h-5.2
		V408.8z M245.8,410.3l2.2-0.5l4,7.6h-2.6L245.8,410.3z"/>
	<path class="st0" d="M254.9,401.8h2l7.6,12.1l-0.3,0.3v-12.4h2.2v15.6h-2l-7.6-11.9l0.3-0.3v12.2h-2.2V401.8z"/>
	<path class="st0" d="M274.4,401.8h1.9l5.8,15.6h-2.4l-4.3-12.6l-4.3,12.6h-2.4L274.4,401.8z M271.3,411.9h8.2v2.1h-8.2V411.9z"/>
	<path class="st0" d="M284.4,401.8h2.2v15.6h-2.2V401.8z M285.5,415.3h8.9v2.1h-8.9V415.3z"/>
</g>
<g class="st1">
	<path class="st0" d="M-23.7,420.3l0.8,7"/>
</g>
<g id="Layer_2">
</g>
</svg>
