<svg xmlns="http://www.w3.org/2000/svg" width="21.041" height="18.236" viewBox="0 0 21.041 18.236">
  <g id="list-view-icon" transform="translate(-2 -6)">
    <path id="Path_47452" data-name="Path 47452" d="M6.208,7.4A1.4,1.4,0,0,0,4.805,6H3.4A1.4,1.4,0,0,0,2,7.4v1.4a1.4,1.4,0,0,0,1.4,1.4h1.4a1.4,1.4,0,0,0,1.4-1.4Zm-1.4,0v1.4H3.4V7.4Z" fill-rule="evenodd"/>
    <path id="Path_47453" data-name="Path 47453" d="M18.7,10a.7.7,0,0,0,0,1.4H32.729a.7.7,0,1,0,0-1.4Z" transform="translate(-10.389 -2.597)"/>
    <path id="Path_47454" data-name="Path 47454" d="M18,30.7a.7.7,0,0,1,.7-.7H32.729a.7.7,0,1,1,0,1.4H18.7A.7.7,0,0,1,18,30.7Z" transform="translate(-10.389 -15.584)"/>
    <path id="Path_47455" data-name="Path 47455" d="M6.208,27.4a1.4,1.4,0,0,0-1.4-1.4H3.4A1.4,1.4,0,0,0,2,27.4v1.4a1.4,1.4,0,0,0,1.4,1.4h1.4a1.4,1.4,0,0,0,1.4-1.4Zm-1.4,0v1.4H3.4V27.4Z" transform="translate(0 -12.986)" fill-rule="evenodd"/>
    <path id="Path_47456" data-name="Path 47456" d="M18,50.7a.7.7,0,0,1,.7-.7H32.729a.7.7,0,0,1,0,1.4H18.7A.7.7,0,0,1,18,50.7Z" transform="translate(-10.389 -28.57)"/>
    <path id="Path_47457" data-name="Path 47457" d="M6.208,47.4a1.4,1.4,0,0,0-1.4-1.4H3.4A1.4,1.4,0,0,0,2,47.4v1.4a1.4,1.4,0,0,0,1.4,1.4h1.4a1.4,1.4,0,0,0,1.4-1.4Zm-1.4,0v1.4H3.4V47.4Z" transform="translate(0 -25.973)" fill-rule="evenodd"/>
  </g>
</svg>
