<svg xmlns="http://www.w3.org/2000/svg" width="135.881" height="64.183" viewBox="0 0 135.881 64.183">
  <g id="Logo_and_branding" data-name="Logo and branding" transform="translate(-47.5 -51.7)">
    <g id="Group_15973" data-name="Group 15973" transform="translate(47.5 68.66)">
      <path id="Path_47481" data-name="Path 47481" d="M55.3,141.284H50.6v4.877H47.5V129.622c2.594,0,5.21-.022,7.8-.022C63.374,129.578,63.4,141.284,55.3,141.284Zm-4.7-2.86h4.678a2.927,2.927,0,1,0,0-5.853H50.6Z" transform="translate(-47.5 -129.289)" fill="#8ba8ba"/>
      <path id="Path_47482" data-name="Path 47482" d="M133.2,136.89c-.044,4.279-2.66,8.558-8.491,8.558-5.809,0-8.513-4.19-8.513-8.536s2.793-8.713,8.513-8.713C130.411,128.178,133.249,132.567,133.2,136.89Zm-13.923.066c.067,2.727,1.53,5.631,5.432,5.631s5.365-2.926,5.41-5.653c.044-2.793-1.508-5.919-5.41-5.919S119.215,134.163,119.282,136.957Z" transform="translate(-100.969 -128.2)" fill="#8ba8ba"/>
      <path id="Path_47483" data-name="Path 47483" d="M206.326,129.6v13.657h8.513v2.882H203.2V129.6Z" transform="translate(-168.681 -129.29)" fill="#8ba8ba"/>
      <path id="Path_47484" data-name="Path 47484" d="M268.726,129.6v13.657h8.513v2.882H265.6V129.6Z" transform="translate(-217.247 -129.29)" fill="#8ba8ba"/>
      <path id="Path_47485" data-name="Path 47485" d="M382.92,129.5h3.126v16.561h-1.929v.022l-8.691-11.174v11.152H372.3V129.522h2.527l8.114,10.265V129.5Z" transform="translate(-300.291 -129.212)" fill="#8ba8ba"/>
      <path id="Path_47486" data-name="Path 47486" d="M459.293,146.239H446.9V129.7h12.393v3.015H450v3.813h8.957v2.9H450v3.725h9.289Z" transform="translate(-358.352 -129.367)" fill="#8ba8ba"/>
      <path id="Path_47487" data-name="Path 47487" d="M528.455,146.161h-3.7l-4.833-5.543h-2.993v5.543H513.8V129.6c2.616,0,5.254.022,7.87.022,3.9.022,5.964,2.616,5.964,5.476a4.927,4.927,0,0,1-4.19,5.21l5.01,5.653ZM516.926,132.5v5.3h4.744a2.645,2.645,0,1,0,0-5.277h-4.744Z" transform="translate(-410.421 -129.29)" fill="#8ba8ba"/>
      <path id="Path_47488" data-name="Path 47488" d="M591.457,143.113h-8.646l-1.419,3.126H578l7.427-16.539h3.414l7.427,16.539h-3.414Zm-4.323-9.954-3.082,7.05h6.141Z" transform="translate(-460.387 -129.367)" fill="#8ba8ba"/>
    </g>
    <path id="Path_47489" data-name="Path 47489" d="M333.9,146.317h3.17V131.374A1.58,1.58,0,0,0,335.5,129.8h0a1.58,1.58,0,0,0-1.574,1.574v14.943Z" transform="translate(-222.905 -60.785)" fill="#8ba8ba"/>
    <g id="Group_15974" data-name="Group 15974" transform="translate(104.145 51.722)">
      <circle id="Ellipse_11" data-name="Ellipse 11" cx="1.397" cy="1.397" r="1.397" transform="translate(5.077 11.418)" fill="#8ba8ba"/>
      <circle id="Ellipse_12" data-name="Ellipse 12" cx="1.907" cy="1.907" r="1.907" transform="translate(2.55 5.698)" fill="#8ba8ba"/>
      <circle id="Ellipse_13" data-name="Ellipse 13" cx="2.417" cy="2.417" r="2.417" transform="translate(0 0)" fill="#8ba8ba"/>
    </g>
    <g id="Group_15975" data-name="Group 15975" transform="translate(113.19 51.722)">
      <circle id="Ellipse_14" data-name="Ellipse 14" cx="1.397" cy="1.397" r="1.397" transform="translate(0 11.418)" fill="#8ba8ba"/>
      <circle id="Ellipse_15" data-name="Ellipse 15" cx="1.907" cy="1.907" r="1.907" transform="translate(1.53 5.698)" fill="#8ba8ba"/>
      <circle id="Ellipse_16" data-name="Ellipse 16" cx="2.417" cy="2.417" r="2.417" transform="translate(3.037 0)" fill="#8ba8ba"/>
    </g>
    <g id="Group_15976" data-name="Group 15976" transform="translate(56.545 51.7)">
      <circle id="Ellipse_17" data-name="Ellipse 17" cx="1.397" cy="1.397" r="1.397" transform="translate(38.709 12.238)" fill="#8ba8ba"/>
      <circle id="Ellipse_18" data-name="Ellipse 18" cx="1.397" cy="1.397" r="1.397" transform="translate(33.787 9.311)" fill="#8ba8ba"/>
      <circle id="Ellipse_19" data-name="Ellipse 19" cx="1.397" cy="1.397" r="1.397" transform="translate(28.932 6.74)" fill="#8ba8ba"/>
      <circle id="Ellipse_20" data-name="Ellipse 20" cx="1.397" cy="1.397" r="1.397" transform="translate(23.833 3.946)" fill="#8ba8ba"/>
      <circle id="Ellipse_21" data-name="Ellipse 21" cx="1.397" cy="1.397" r="1.397" transform="translate(18.157 1.397)" fill="#8ba8ba"/>
      <circle id="Ellipse_22" data-name="Ellipse 22" cx="1.397" cy="1.397" r="1.397" transform="translate(12.038 0)" fill="#8ba8ba"/>
      <circle id="Ellipse_23" data-name="Ellipse 23" cx="1.397" cy="1.397" r="1.397" transform="translate(5.919 2.394)" fill="#8ba8ba"/>
      <circle id="Ellipse_24" data-name="Ellipse 24" cx="1.397" cy="1.397" r="1.397" transform="translate(1.973 7.117)" fill="#8ba8ba"/>
      <circle id="Ellipse_25" data-name="Ellipse 25" cx="1.397" cy="1.397" r="1.397" transform="translate(0 12.304)" fill="#8ba8ba"/>
    </g>
    <g id="Group_15977" data-name="Group 15977" transform="translate(130.993 51.7)">
      <circle id="Ellipse_26" data-name="Ellipse 26" cx="1.397" cy="1.397" r="1.397" transform="translate(0 12.238)" fill="#8ba8ba"/>
      <circle id="Ellipse_27" data-name="Ellipse 27" cx="1.397" cy="1.397" r="1.397" transform="translate(4.922 9.311)" fill="#8ba8ba"/>
      <circle id="Ellipse_28" data-name="Ellipse 28" cx="1.397" cy="1.397" r="1.397" transform="translate(9.755 6.74)" fill="#8ba8ba"/>
      <circle id="Ellipse_29" data-name="Ellipse 29" cx="1.397" cy="1.397" r="1.397" transform="translate(14.876 3.946)" fill="#8ba8ba"/>
      <circle id="Ellipse_30" data-name="Ellipse 30" cx="1.397" cy="1.397" r="1.397" transform="translate(20.552 1.397)" fill="#8ba8ba"/>
      <circle id="Ellipse_31" data-name="Ellipse 31" cx="1.397" cy="1.397" r="1.397" transform="translate(26.671 0)" fill="#8ba8ba"/>
      <circle id="Ellipse_32" data-name="Ellipse 32" cx="1.397" cy="1.397" r="1.397" transform="translate(32.79 2.394)" fill="#8ba8ba"/>
      <circle id="Ellipse_33" data-name="Ellipse 33" cx="1.397" cy="1.397" r="1.397" transform="translate(36.736 7.117)" fill="#8ba8ba"/>
      <circle id="Ellipse_34" data-name="Ellipse 34" cx="1.397" cy="1.397" r="1.397" transform="translate(38.687 12.304)" fill="#8ba8ba"/>
    </g>
    <g id="Group_15978" data-name="Group 15978" transform="translate(56.545 87.948)">
      <circle id="Ellipse_35" data-name="Ellipse 35" cx="1.397" cy="1.397" r="1.397" transform="translate(38.709 0.067)" fill="#8ba8ba"/>
      <circle id="Ellipse_36" data-name="Ellipse 36" cx="1.397" cy="1.397" r="1.397" transform="translate(33.787 2.993)" fill="#8ba8ba"/>
      <circle id="Ellipse_37" data-name="Ellipse 37" cx="1.397" cy="1.397" r="1.397" transform="translate(28.932 5.565)" fill="#8ba8ba"/>
      <circle id="Ellipse_38" data-name="Ellipse 38" cx="1.397" cy="1.397" r="1.397" transform="translate(23.833 8.336)" fill="#8ba8ba"/>
      <circle id="Ellipse_39" data-name="Ellipse 39" cx="1.397" cy="1.397" r="1.397" transform="translate(18.157 10.908)" fill="#8ba8ba"/>
      <circle id="Ellipse_40" data-name="Ellipse 40" cx="1.397" cy="1.397" r="1.397" transform="translate(12.038 12.304)" fill="#8ba8ba"/>
      <circle id="Ellipse_41" data-name="Ellipse 41" cx="1.397" cy="1.397" r="1.397" transform="translate(5.919 9.91)" fill="#8ba8ba"/>
      <circle id="Ellipse_42" data-name="Ellipse 42" cx="1.397" cy="1.397" r="1.397" transform="translate(1.973 5.188)" fill="#8ba8ba"/>
      <circle id="Ellipse_43" data-name="Ellipse 43" cx="1.397" cy="1.397" r="1.397" transform="translate(0 0)" fill="#8ba8ba"/>
    </g>
    <g id="Group_15979" data-name="Group 15979" transform="translate(72.02 93.823)">
      <circle id="Ellipse_44" data-name="Ellipse 44" cx="1.397" cy="1.397" r="1.397" transform="translate(31.681)" fill="#8ba8ba"/>
      <circle id="Ellipse_45" data-name="Ellipse 45" cx="1.397" cy="1.397" r="1.397" transform="translate(28.444 4.412)" fill="#8ba8ba"/>
      <circle id="Ellipse_46" data-name="Ellipse 46" cx="1.397" cy="1.397" r="1.397" transform="translate(25.074 9.156)" fill="#8ba8ba"/>
      <circle id="Ellipse_47" data-name="Ellipse 47" cx="1.397" cy="1.397" r="1.397" transform="translate(21.084 13.945)" fill="#8ba8ba"/>
      <circle id="Ellipse_48" data-name="Ellipse 48" cx="1.397" cy="1.397" r="1.397" transform="translate(16.184 17.869)" fill="#8ba8ba"/>
      <circle id="Ellipse_49" data-name="Ellipse 49" cx="1.397" cy="1.397" r="1.397" transform="translate(9.644 18.401)" fill="#8ba8ba"/>
      <circle id="Ellipse_50" data-name="Ellipse 50" cx="1.397" cy="1.397" r="1.397" transform="translate(4.013 15.874)" fill="#8ba8ba"/>
      <circle id="Ellipse_51" data-name="Ellipse 51" cx="1.397" cy="1.397" r="1.397" transform="translate(0 12.061)" fill="#8ba8ba"/>
    </g>
    <g id="Group_15980" data-name="Group 15980" transform="translate(118.999 93.823)">
      <circle id="Ellipse_52" data-name="Ellipse 52" cx="1.397" cy="1.397" r="1.397" fill="#8ba8ba"/>
      <circle id="Ellipse_53" data-name="Ellipse 53" cx="1.397" cy="1.397" r="1.397" transform="translate(3.215 4.412)" fill="#8ba8ba"/>
      <circle id="Ellipse_54" data-name="Ellipse 54" cx="1.397" cy="1.397" r="1.397" transform="translate(6.607 9.156)" fill="#8ba8ba"/>
      <circle id="Ellipse_55" data-name="Ellipse 55" cx="1.397" cy="1.397" r="1.397" transform="translate(10.597 13.945)" fill="#8ba8ba"/>
      <circle id="Ellipse_56" data-name="Ellipse 56" cx="1.397" cy="1.397" r="1.397" transform="translate(15.475 17.869)" fill="#8ba8ba"/>
      <circle id="Ellipse_57" data-name="Ellipse 57" cx="1.397" cy="1.397" r="1.397" transform="translate(22.015 18.401)" fill="#8ba8ba"/>
      <circle id="Ellipse_58" data-name="Ellipse 58" cx="1.397" cy="1.397" r="1.397" transform="translate(27.646 15.874)" fill="#8ba8ba"/>
      <circle id="Ellipse_59" data-name="Ellipse 59" cx="1.397" cy="1.397" r="1.397" transform="translate(31.681 12.061)" fill="#8ba8ba"/>
    </g>
    <g id="Group_15981" data-name="Group 15981" transform="translate(129.02 87.948)">
      <circle id="Ellipse_60" data-name="Ellipse 60" cx="1.397" cy="1.397" r="1.397" transform="translate(0 0.067)" fill="#8ba8ba"/>
      <circle id="Ellipse_61" data-name="Ellipse 61" cx="1.397" cy="1.397" r="1.397" transform="translate(4.922 2.993)" fill="#8ba8ba"/>
      <circle id="Ellipse_62" data-name="Ellipse 62" cx="1.397" cy="1.397" r="1.397" transform="translate(9.777 5.565)" fill="#8ba8ba"/>
      <circle id="Ellipse_63" data-name="Ellipse 63" cx="1.397" cy="1.397" r="1.397" transform="translate(14.876 8.336)" fill="#8ba8ba"/>
      <circle id="Ellipse_64" data-name="Ellipse 64" cx="1.397" cy="1.397" r="1.397" transform="translate(20.552 10.908)" fill="#8ba8ba"/>
      <circle id="Ellipse_65" data-name="Ellipse 65" cx="1.397" cy="1.397" r="1.397" transform="translate(26.671 12.304)" fill="#8ba8ba"/>
      <circle id="Ellipse_66" data-name="Ellipse 66" cx="1.397" cy="1.397" r="1.397" transform="translate(32.79 9.91)" fill="#8ba8ba"/>
      <circle id="Ellipse_67" data-name="Ellipse 67" cx="1.397" cy="1.397" r="1.397" transform="translate(36.736 5.188)" fill="#8ba8ba"/>
      <circle id="Ellipse_68" data-name="Ellipse 68" cx="1.397" cy="1.397" r="1.397" transform="translate(38.709 0)" fill="#8ba8ba"/>
    </g>
    <circle id="Ellipse_69" data-name="Ellipse 69" cx="1.397" cy="1.397" r="1.397" transform="translate(111.173 90.941)" fill="#8ba8ba"/>
    <circle id="Ellipse_70" data-name="Ellipse 70" cx="1.397" cy="1.397" r="1.397" transform="translate(111.173 96.484)" fill="#8ba8ba"/>
    <circle id="Ellipse_71" data-name="Ellipse 71" cx="1.397" cy="1.397" r="1.397" transform="translate(111.173 107.547)" fill="#8ba8ba"/>
    <circle id="Ellipse_72" data-name="Ellipse 72" cx="1.397" cy="1.397" r="1.397" transform="translate(111.173 113.089)" fill="#8ba8ba"/>
    <circle id="Ellipse_73" data-name="Ellipse 73" cx="1.397" cy="1.397" r="1.397" transform="translate(111.173 102.004)" fill="#8ba8ba"/>
  </g>
</svg>
