<svg xmlns="http://www.w3.org/2000/svg" width="103.031" height="103.719" viewBox="0 0 103.031 103.719">
  <g id="Newsletter" transform="translate(-1 -0.586)">
    <path id="Path_47471" data-name="Path 47471" d="M17,66.265H86.8V43H17Zm3.324-19.941H83.472V62.941H20.324Z" transform="translate(10.589 28.069)" fill="#8ba8ba"/>
    <path id="Path_47472" data-name="Path 47472" d="M31.956,40.912A14.956,14.956,0,1,0,17,25.956,14.973,14.973,0,0,0,31.956,40.912Zm0-26.589A11.633,11.633,0,1,1,20.324,25.956,11.646,11.646,0,0,1,31.956,14.324Z" transform="translate(10.589 6.892)" fill="#8ba8ba"/>
    <rect id="Rectangle_3818" data-name="Rectangle 3818" width="3.324" height="3.324" transform="translate(60.824 17.892)" fill="#8ba8ba"/>
    <rect id="Rectangle_3819" data-name="Rectangle 3819" width="29.912" height="3.324" transform="translate(67.472 17.892)" fill="#8ba8ba"/>
    <rect id="Rectangle_3820" data-name="Rectangle 3820" width="36.559" height="3.324" transform="translate(60.824 24.539)" fill="#8ba8ba"/>
    <rect id="Rectangle_3821" data-name="Rectangle 3821" width="36.559" height="3.324" transform="translate(60.824 31.186)" fill="#8ba8ba"/>
    <rect id="Rectangle_3822" data-name="Rectangle 3822" width="36.559" height="3.324" transform="translate(60.824 37.833)" fill="#8ba8ba"/>
    <rect id="Rectangle_3823" data-name="Rectangle 3823" width="3.324" height="3.324" transform="translate(94.06 44.48)" fill="#8ba8ba"/>
    <rect id="Rectangle_3824" data-name="Rectangle 3824" width="29.912" height="3.324" transform="translate(60.824 44.48)" fill="#8ba8ba"/>
    <rect id="Rectangle_3825" data-name="Rectangle 3825" width="3.324" height="3.324" transform="translate(27.589 51.128)" fill="#8ba8ba"/>
    <rect id="Rectangle_3826" data-name="Rectangle 3826" width="63.148" height="3.324" transform="translate(34.236 51.128)" fill="#8ba8ba"/>
    <rect id="Rectangle_3827" data-name="Rectangle 3827" width="3.324" height="3.324" transform="translate(94.06 64.422)" fill="#8ba8ba"/>
    <rect id="Rectangle_3828" data-name="Rectangle 3828" width="63.148" height="3.324" transform="translate(27.589 64.422)" fill="#8ba8ba"/>
    <rect id="Rectangle_3829" data-name="Rectangle 3829" width="69.795" height="3.324" transform="translate(27.589 57.775)" fill="#8ba8ba"/>
    <path id="Path_47473" data-name="Path 47473" d="M95.709.586,89.062,7.233,82.416.586,75.769,7.233,69.122.586,62.475,7.233,55.827.586,49.184,7.233,42.541.586,35.9,7.233,29.257.586,20.953,8.9V15.53l-5,5L9.316,13.882l-8.3,8.311L1,92.672A11.646,11.646,0,0,0,12.633,104.3H92.4a11.646,11.646,0,0,0,11.633-11.633V8.893Zm-83.076,100.4a8.318,8.318,0,0,1-8.309-8.309l.012-69.107,4.98-4.984,6.639,6.647,5-5-.01,72.442A8.318,8.318,0,0,1,12.633,100.981Zm88.075-8.309a8.318,8.318,0,0,1-8.309,8.309H20.767a11.6,11.6,0,0,0,3.5-8.309l.012-82.4,4.98-4.984L35.9,11.934l6.645-6.647,6.642,6.647,6.644-6.647,6.647,6.647,6.647-6.647,6.647,6.647,6.647-6.647,6.645,6.647,6.65-6.647,5,4.985Z" fill="#8ba8ba"/>
  </g>
</svg>
