<?xml version="1.0" encoding="utf-8"?>
<!-- Generator: Adobe Illustrator 27.8.1, SVG Export Plug-In . SVG Version: 6.00 Build 0)  -->
<svg version="1.1" id="Layer_1" xmlns="http://www.w3.org/2000/svg" xmlns:xlink="http://www.w3.org/1999/xlink" x="0px" y="0px"
	 viewBox="0 0 707.8 392.9" style="enable-background:new 0 0 707.8 392.9;" xml:space="preserve">
<style type="text/css">
	.st0{fill:#F1D52D;}
	.st1{fill:#E5CD1E;}
	.st2{fill:#FFFFFF;}
</style>
<g>
	<g>
		<path class="st1" d="M82.7,182.3H61.5v22H47.5v-74.6c11.7,0,23.5-0.1,35.2-0.1C119.1,129.5,119.2,182.3,82.7,182.3z M61.5,169.4
			h21.1c18,0,17.9-26.4,0-26.4H61.5V169.4z"/>
		<path class="st1" d="M192.9,167.4c-0.2,19.3-12,38.6-38.3,38.6c-26.2,0-38.4-18.9-38.4-38.5c0-19.6,12.6-39.3,38.4-39.3
			C180.3,128.1,193.1,147.9,192.9,167.4z M130.1,167.7c0.3,12.3,6.9,25.4,24.5,25.4c17.6,0,24.2-13.2,24.4-25.5
			c0.2-12.6-6.8-26.7-24.4-26.7C137,140.9,129.8,155.1,130.1,167.7z"/>
		<path class="st1" d="M217.3,129.6v61.6h38.4v13h-52.5v-74.6H217.3z"/>
		<path class="st1" d="M279.7,129.6v61.6h38.4v13h-52.5v-74.6H279.7z"/>
		<path class="st1" d="M420.2,129.5h14.1v74.7h-8.7v0.1l-39.2-50.4v50.3h-14.1v-74.6h11.4l36.6,46.3V129.5z"/>
		<path d="M502.8,204.3h-55.9c0-24.8,0-49.8,0-74.6h55.9v13.6h-41.9v17.2h40.4v13.1h-40.4v16.8h41.9V204.3z"/>
		<path d="M579.9,204.3h-16.7l-21.8-25h-13.5v25h-14.1v-74.7c11.8,0,23.7,0.1,35.5,0.1c17.6,0.1,26.9,11.8,26.9,24.7
			c0,10.2-4.7,20.6-18.9,23.5l22.6,25.5V204.3z M527.9,142.7v23.9h21.4c9,0,12.8-6,12.8-11.9c0-6-3.9-11.9-12.8-11.9H527.9z"/>
		<path d="M638.7,190.2h-39l-6.4,14.1H578l33.5-74.6h15.4l33.5,74.6H645L638.7,190.2z M619.2,145.3l-13.9,31.8H633L619.2,145.3z"/>
	</g>
	<path class="st1" d="M333.9,204.3h14.3v-67.4c0-3.9-3.2-7.1-7.1-7.1l0,0c-3.9,0-7.1,3.2-7.1,7.1V204.3z"/>
	<g>
		<circle class="st1" cx="332.2" cy="109.6" r="6.3"/>
		<circle class="st1" cx="323.1" cy="86.1" r="8.6"/>
		<circle class="st1" cx="313.9" cy="62.7" r="10.9"/>
	</g>
	<g>
		<circle class="st1" cx="350.1" cy="109.6" r="6.3"/>
		<circle class="st1" cx="359.3" cy="86.1" r="8.6"/>
		<circle class="st1" cx="368.4" cy="62.7" r="10.9"/>
	</g>
	<g>
		<circle cx="269.2" cy="113.2" r="6.3"/>
		<circle cx="247" cy="100" r="6.3"/>
		<circle cx="225.1" cy="88.4" r="6.3"/>
		<circle cx="202.1" cy="75.8" r="6.3"/>
		<circle cx="176.5" cy="64.3" r="6.3"/>
		<circle cx="148.9" cy="58" r="6.3"/>
		<circle cx="121.3" cy="68.8" r="6.3"/>
		<circle cx="103.5" cy="90.1" r="6.3"/>
		<circle cx="94.6" cy="113.5" r="6.3"/>
	</g>
	<g>
		<circle cx="430.4" cy="113.2" r="6.3"/>
		<circle cx="452.6" cy="100" r="6.3"/>
		<circle cx="474.4" cy="88.4" r="6.3"/>
		<circle cx="497.5" cy="75.8" r="6.3"/>
		<circle cx="523.1" cy="64.3" r="6.3"/>
		<circle cx="550.7" cy="58" r="6.3"/>
		<circle cx="578.3" cy="68.8" r="6.3"/>
		<circle cx="596.1" cy="90.1" r="6.3"/>
		<circle cx="604.9" cy="113.5" r="6.3"/>
	</g>
	<g>
		<circle cx="269.2" cy="221.8" r="6.3"/>
		<circle cx="247" cy="235" r="6.3"/>
		<circle cx="225.1" cy="246.6" r="6.3"/>
		<circle cx="202.1" cy="259.1" r="6.3"/>
		<circle cx="176.5" cy="270.7" r="6.3"/>
		<circle cx="148.9" cy="277" r="6.3"/>
		<circle cx="121.3" cy="266.2" r="6.3"/>
		<circle cx="103.5" cy="244.9" r="6.3"/>
		<circle cx="94.6" cy="221.5" r="6.3"/>
	</g>
	<g>
		<circle cx="307.3" cy="248" r="6.3"/>
		<circle cx="292.7" cy="267.9" r="6.3"/>
		<circle cx="277.5" cy="289.3" r="6.3"/>
		<circle cx="259.5" cy="310.9" r="6.3"/>
		<circle cx="237.4" cy="328.6" r="6.3"/>
		<circle cx="207.9" cy="331" r="6.3"/>
		<circle cx="182.5" cy="319.6" r="6.3"/>
		<circle cx="164.4" cy="302.4" r="6.3"/>
	</g>
	<g>
		<circle cx="376.3" cy="248" r="6.3"/>
		<circle cx="390.8" cy="267.9" r="6.3"/>
		<circle cx="406.1" cy="289.3" r="6.3"/>
		<circle cx="424.1" cy="310.9" r="6.3"/>
		<circle cx="446.1" cy="328.6" r="6.3"/>
		<circle cx="475.6" cy="331" r="6.3"/>
		<circle cx="501" cy="319.6" r="6.3"/>
		<circle cx="519.2" cy="302.4" r="6.3"/>
	</g>
	<g>
		<circle cx="421.5" cy="221.8" r="6.3"/>
		<circle cx="443.7" cy="235" r="6.3"/>
		<circle cx="465.6" cy="246.6" r="6.3"/>
		<circle cx="488.6" cy="259.1" r="6.3"/>
		<circle cx="514.2" cy="270.7" r="6.3"/>
		<circle cx="541.8" cy="277" r="6.3"/>
		<circle cx="569.4" cy="266.2" r="6.3"/>
		<circle cx="587.2" cy="244.9" r="6.3"/>
		<circle cx="596.1" cy="221.5" r="6.3"/>
	</g>
	<circle cx="341" cy="235" r="6.3"/>
	<circle cx="341" cy="260" r="6.3"/>
	<circle cx="341" cy="309.9" r="6.3"/>
	<circle cx="341" cy="334.9" r="6.3"/>
	<circle cx="341" cy="284.9" r="6.3"/>
</g>
</svg>
