<svg xmlns="http://www.w3.org/2000/svg" width="100.477" height="94.047" viewBox="0 0 100.477 94.047">
  <g id="Promotional_materials" data-name="Promotional materials" transform="translate(-0.794 -1.285)">
    <path id="Path_47493" data-name="Path 47493" d="M74.114,1.289a1.71,1.71,0,0,0-1.569.9L64.641,16.7a1.733,1.733,0,0,0,3.043,1.657l7.9-14.507a1.732,1.732,0,0,0-1.473-2.561Zm-26.8,12.7a7.023,7.023,0,0,0-3.706.947,7.147,7.147,0,0,0-3.55,6.311l-15.489,21.8L10.53,51.169a7.144,7.144,0,0,0-2.6,9.722l.1.163L1.659,64.736A1.733,1.733,0,0,0,1.025,67.1L7.613,78.529a1.733,1.733,0,0,0,2.368.635l6.364-3.68.088.159a7.137,7.137,0,0,0,7.607,3.406l8.887,15.416A1.733,1.733,0,0,0,35.3,95.1l7.657-4.428a1.733,1.733,0,0,0,.634-2.365L34.878,73.2l5.312-3.072,26.59-2.533a7.116,7.116,0,0,0,9.84-9.657L53.335,17.542a7.127,7.127,0,0,0-6.013-3.554Zm-.066,3.444a3.615,3.615,0,0,1,3.076,1.845L73.614,59.672a3.653,3.653,0,1,1-6.325,3.658L44,22.936a3.616,3.616,0,0,1,1.336-5,3.684,3.684,0,0,1,1.914-.5Zm40.4,5.409a1.733,1.733,0,0,0-.776.23L72.789,31.218a1.732,1.732,0,1,0,1.734,3L88.61,26.072a1.731,1.731,0,0,0-.959-3.229ZM41.4,25.35,63.9,64.387l-23.31,2.22L27.82,44.457ZM83.084,45.086A1.732,1.732,0,1,0,83,48.55l16.5.4a1.733,1.733,0,0,0,.083-3.464ZM25.129,46.728,37.279,67.8,24.406,75.248a3.594,3.594,0,0,1-4.977-1.337l-.919-1.593q-.021-.034-.044-.066l-.011-.022L11.923,60.9q-.021-.039-.044-.077l-.022-.022-.942-1.634a3.612,3.612,0,0,1,1.335-4.991ZM9.748,64.056l4.857,8.425L9.739,75.3,4.882,66.87ZM31.872,74.933l7.842,13.6L35.056,91.23l-7.842-13.6Z" transform="translate(0 0)" fill="#8ba8ba" fill-rule="evenodd"/>
  </g>
</svg>
