<svg xmlns="http://www.w3.org/2000/svg" width="14.539" height="8.37" viewBox="0 0 14.539 8.37">
  <g id="read_full_description-arrow-down" data-name="read full description-arrow-down" transform="translate(13.974 7.871) rotate(180)">
    <g id="Dribbble-Light-Preview" transform="translate(0)">
      <g id="icons" transform="translate(0 0)">
        <path id="arrow_up-_337_" data-name="arrow_up-[#337]" d="M13.208,7.124h0a.71.71,0,0,0,0-.979L7.67.408a1.3,1.3,0,0,0-1.895,0L.2,6.185a.719.719,0,0,0-.007.979.662.662,0,0,0,.955.008l5.1-5.295a.66.66,0,0,1,.948,0l5.065,5.248a.648.648,0,0,0,.947,0" fill="#8ba8ba" stroke="#8ba8ba" stroke-width="1" fill-rule="evenodd"/>
      </g>
    </g>
  </g>
</svg>
