<?xml version="1.0" encoding="utf-8"?>
<!-- Generator: Adobe Illustrator 19.0.0, SVG Export Plug-In . SVG Version: 6.00 Build 0)  -->
<svg version="1.1" id="Layer_1" xmlns="http://www.w3.org/2000/svg" xmlns:xlink="http://www.w3.org/1999/xlink" x="0px" y="0px"
	 viewBox="-94.4 355.1 338.7 85.7" style="enable-background:new -94.4 355.1 338.7 85.7;" xml:space="preserve">
<style type="text/css">
	.st0{fill:#FFFFFF;}
</style>
<g>
	<g>
		<g>
			<g>
				<path class="st0" d="M-56.7,419.6c-0.6,0.7-0.7,0.6-1.2,1.2c-1.3,1.3-3.4,7.5-4.5,10.3c0,0.1-0.1,0.2-0.1,0.3
					c-1.1,2.6,0.7,4.3,1.7,6.9c0.9,2.6-2.3,2.2-2.3,2.2h-5.9c-2.5-0.8-2.4-3.1-1.9-5.2c0.1-0.5,0.3-1.2,0.6-2.1
					c1.3-4.6,4.2-13.7,4-14.9c-0.1-1-1.3-7.3-2-11.4c1.8,2,4.5,3.4,6.5,5.1c1.2,1,2.8,4.9,3.5,5.6
					C-57.2,418.8-56.9,419.1-56.7,419.6z"/>
			</g>
			<path class="st0" d="M-15.3,393.8"/>
			<path class="st0" d="M-28.1,417.3c0.8,0.7,1.4,1.1,2.3,1.6c2,1,2.9,3.1,1.5,5.1c-0.3,0.4-0.2,10.1,1.3,11.3
				c1.5,1.2,3.5,6.1-0.6,5.3h-7.8c-2.2-0.7-1.2-3.9-1.2-5.8c0-1.7,0.4-3.3,0.4-5c0-2.2,0.4-4.2,0.1-6.4c0-0.3-0.1-0.5-0.1-0.8
				c-0.2-1.9-0.2-3.8,0-5.7c0.1-0.7,0.1-1.4,0.1-2.2C-32.1,415.4-28.8,416.7-28.1,417.3z"/>
			<g>
				<path class="st0" d="M-8.3,424c0,2.5,0,2.5-1.1,3.4c-1.1,0.9-2.5,5.2-3.1,7.8c-0.6,2.6-1.5,3.1-2.9,2.9
					c-0.8-0.1-1.5-1.3-1.9-1.9c-0.9-1.2-1.7-2.4-2.5-3.7c-0.5-0.8-2.2-2.7-2-3.6c0.3-1.3,2.6-1.5,3.5-2.2c1-0.7,1.4-1.7,2-2.7
					c0.4-0.8,0.1-1.6-6-5.1c-0.6-0.3-1.2-0.7-1.9-1c0,0-0.1,0-0.1-0.1l0,0l-7.7-5v0c-0.3-0.5-0.6-0.9-0.8-1.4
					c-1.4-2.7-1.2-5.3-1.2-5.3l-10.9,1.9c0,0,0.3,1.8,1.1,3.5c0.7,1.7-2,5.5-2.8,6.3c-0.8,0.8-1.1,6.2-1.1,6.2s-0.2,1.3-0.5,3
					c-0.4,3-0.7,7.4,0.6,8.3c1.1,0.8,2.2,1.6,2.4,2.8c0.2,0.9-0.4,2.2-0.4,2.2l-5.7,0c-3.1-0.1-6,0.4-6-4.2c0-1,0.5-3.8,0.9-6.9
					c0.5-2.9,0.9-6.1,1-8c0-1.1-0.2-2-0.6-2.9c-0.8-1.8-2.7-2.8-3.4-5.4c-0.8-2.6-5.8-5.1-8.8-8.3c-0.4-0.5-0.7-1-1-1.7c0,0,0,0,0,0
					c-1.7-4.2-1.1-11.7-1.1-11.7s-1.1,0.3-2,2.9c-0.9,2.6-4.9,8.6-7.1,10.2c-2.2,1.5-6.6,4.9-9.1,6.9c-2.3,1.9-5.6,4.6-6,4.9
					c0.7-0.8,12.5-13.1,16.1-16.3c1.9-1.6,3.2-6.3,5.1-11.6c1.8-5.1,4.2-10.9,8-15.1c7.8-8.5,18-3.1,21.2-2.6c2,0.3,4.2,0.2,5.6,0.1
					c0.8-0.1,1.3-0.1,1.4-0.1c0.2-0.1,0.5-0.1,0.7-0.2c0,0.4,0.1,0.8,0.1,1.1c0.3,2.1,2,6.2,3.5,7.3c1.6,1.1,1.7,0.9,1.9,1.7
					c0.2,0.7,0.8,1.2,1.6,2.4c0.8,1.2,3.7,5.5,4.4,6.2c0.7,0.8,3.4,3.2,5.9,5.1c1.5,1.1,2.2,0.9,2.6,0.5c-0.1,0.3-0.3,0.6-0.4,0.9
					c-1.1,3.8,0.4,10.7,0.5,13.7c0.1,2,1.4,4.1,2.9,5.8c1.1,1.3,2.3,2.5,3,3.3C-8.4,420.5-8.3,421.6-8.3,424z"/>
			</g>
			<g>
				<g>
					<path class="st0" d="M-16.1,394.9"/>
				</g>
				<path class="st0" d="M-14.3,389.2c1.7-1.7,0.8-3.4,1.2-5.5c0.3-1.6,2.4-4,3.6-1.6c-3.8-1.8-2.8,5.9-4.8,7V389.2z"/>
			</g>
			<g>
				<path class="st0" d="M27.8,394.7c-0.5,1.9-1.1,4.7-2.3,6.3c-1.3,1.9-4.5,3.4-6.8,3.2c-2-0.2-4.7-1.6-6.1-3.1
					c-0.7-0.7-1-1.7-1.6-2.5c-0.9-1.3-0.9-3-0.6-4.4c0.2-0.9-0.6-2.1-1.3-2.7c-2.6,2.3-4.3,1.9-7.8,1.2c-1-0.2-2-0.4-2.9-0.8
					c-1.2-0.4-1.9-0.3-3.2-0.4c-0.9-0.1-1.9-0.8-2.8-1.5c-2-0.8-4-1.5-4.9-0.4c0,0,0,0,0,0c0,0,0,0.1,0,0.1c0.2,0.2,0.1,0.4-0.1,0.7
					c-0.1,0.1-0.2,0.3-0.4,0.5c-0.4,0.3-1.1,0.9-2.4,2c-0.4,0.3-1,0.3-2-0.3c-0.2-0.1-0.3-0.2-0.5-0.3c-2.5-1.8-5.2-4.3-5.9-5.1
					c-0.7-0.8-3.6-5.1-4.4-6.3c-0.8-1.2-1.5-1.7-1.6-2.4c-0.2-0.7-0.3-0.6-1.9-1.7c-1.4-1-2.9-4.4-3.4-6.7c-0.1-0.2-0.1-0.4-0.1-0.6
					c-0.5-3.5-1.1-7.6,1.4-10.4c5-5.6,16-5.4,21.7-1.4c1.2,0.8,4.2,3.2,5,3.9c0.5,0.5,1.4,1.4,1.8,1.9c0.2,0.2,0.3,0.4,0.3,0.4
					s3.8,2.8,6.5,3.5c3,1.5,5.7,5.7,5.7,5.7c1,1.6,2.3,2.8,3.2,4.6c1.7,3.3,3.7,7,5,10.3c0,0,0.5,1.2,0.5,1.5c0,0.4,1.7,4.1,0.5,5.3
					c-0.1,0.1-0.1,0.2-0.2,0.2c-0.1,0.2-0.2,0.4-0.2,0.7c0,0.8,0.6,1.8,1,2.4c1.3,1.7,4.1,1.5,5.5,0c0.2-0.2,0.4-0.5,0.5-0.8
					c0.5-1.1,0.9-2.2,0.8-3.4c0-0.2-0.4-0.4-0.4-0.7c-0.1-0.5-0.5-1.4,0.1-1.8c0.6-0.4,1.3,0.4,1.9,0.3c0.9-0.1,1.9-1.6,2.5-0.2
					C28.3,392.4,28.1,393.4,27.8,394.7z"/>
			</g>
			<path class="st0" d="M-2.8,379.2c-0.1,0.1,0.8,0.9,0.9,1c0.3,0.2,0.7,0.3,1.1,0.4c0.5,0,2-0.6,2.2,0c-0.2-0.4-0.2-0.9-0.5-1.3
				c-0.3-0.4-0.6-0.7-1.1-0.8C-1.1,378.1-2.2,378.6-2.8,379.2z"/>
			<path class="st0" d="M-2.2,379.2c-0.2,0.2,0.9,0.8,1.1,0.9c0.4,0.1,0.9,0,1.3,0c0.4,0,0.7,0,0.4-0.4c-0.2-0.4-0.6-0.9-1-1
				C-1.1,378.5-1.8,378.8-2.2,379.2z"/>
		</g>
		<g>
			<path class="st0" d="M150.3,364.5c0,0-7.7-3.2-15.4-0.1c0,12.7,0,21.9,0,21.9c2.4-9.5,10.6-13.2,14-14.2c0.3-0.1,1.5-0.3,1.5-0.3
				L150.3,364.5L150.3,364.5z"/>
			<path class="st0" d="M150.4,439.6c-8.4,2.8-15.6,0-15.6,0v-46.4c0.6-15.1,15.6-15.6,15.6-15.6
				C150.4,377.6,150.4,439.6,150.4,439.6z"/>
			<path class="st0" d="M56.1,382.5v57c-8.5,2.6-15.8,0.2-15.8,0.2s0-24.9,0-45.2c0.3-0.8,0.6-1.6,1-2.3
				C45.2,384.2,53.6,382.7,56.1,382.5z"/>
			<path class="st0" d="M118.3,439.6c-6.8,2.6-17.1,0.1-17.1,0.1l-13-30.5H74.7c-4.8,0-5.2-3.6-5.2-7.2c0-4.5,0.5-7.1,5.5-7.1h13.8
				c2.7,0,4.2-3.2,4.3-3.5c2.4-5.2,1-14.4-5.9-14.4h-31v0c-1.8,0.2-9.6,1.5-13.9,9.8c-0.1,0.2-0.3,0.5-0.4,0.8
				c-0.6,1.3-1.2,2.7-1.5,4.4v-21.8c0-7.2,7-7,7-7h42.4c19.6,0,24.7,28.8,12.8,38.8L118.3,439.6z"/>
			<path class="st0" d="M156.9,413.7"/>
			<path class="st0" d="M234,404.8c0.1-0.1,0.3-0.1,0.4-0.2c0.4-0.2,0.8-0.5,1.2-0.7c0.1-0.1,0.2-0.1,0.2-0.2
				c0.8-0.6,1.7-1.3,2.5-2.1c0.1-0.1,0.1-0.1,0.2-0.2c0.1-0.1,0.2-0.2,0.3-0.3c0.1-0.1,0.1-0.2,0.2-0.2c0.7-0.7,1.3-1.6,1.8-2.5
				c0.1-0.2,0.3-0.5,0.5-0.8c0.8-1.4,1.4-3,1.9-4.8c0.7,2.9,1.1,6,1.1,9.2c0,21.4-17.3,38.7-38.7,38.7c-21.4,0-38.7-17.4-38.7-38.7
				c0-21.4,17.3-38.7,38.7-38.7c17.8,0,32.8,12,37.3,28.3c-0.3,0.5-0.5,1-0.8,1.5c-3.8,6.6-10.8,8.3-14.1,8.6
				c-0.2-12.2-10.1-22.1-22.4-22.1c-12.4,0-22.4,10-22.4,22.4c0,12.4,10,22.4,22.4,22.4c10.7,0,19.6-7.5,21.8-17.4
				c0.4-0.1,0.7-0.1,1.1-0.2c0.2,0,0.4-0.1,0.6-0.1c0.1,0,0.3-0.1,0.4-0.1c0.3-0.1,0.5-0.1,0.8-0.2c0.1,0,0.3-0.1,0.4-0.1
				c0.2-0.1,0.5-0.2,0.8-0.3c0.1-0.1,0.3-0.1,0.4-0.2c0.1,0,0.2-0.1,0.3-0.1L234,404.8z"/>
		</g>
	</g>
</g>
</svg>
