<svg xmlns="http://www.w3.org/2000/svg" width="83.905" height="103.719" viewBox="0 0 83.905 103.719">
  <path id="Videos" d="M85.136,20.8h7L81.7,10.365v7a3.443,3.443,0,0,0,3.44,3.439h0Zm9.221,3.143V87.9a3.429,3.429,0,0,1-1.012,2.428v.006a3.427,3.427,0,0,1-2.428,1.006H34.435a3.427,3.427,0,0,1-2.428-1.012H32A3.427,3.427,0,0,1,31,87.9V11.583A3.422,3.422,0,0,1,32,9.155h.006a3.431,3.431,0,0,1,2.428-1.012H78.553v9.221a6.555,6.555,0,0,0,1.933,4.644l.006.006a6.56,6.56,0,0,0,4.644,1.933ZM27.851,15.263V87.9a6.567,6.567,0,0,0,1.936,4.648l0,0a6.562,6.562,0,0,0,4.65,1.933H87.229v.537a3.439,3.439,0,0,1-1.008,2.432l0,0a3.431,3.431,0,0,1-2.428,1.012H27.307a3.427,3.427,0,0,1-2.428-1.012h-.006a3.427,3.427,0,0,1-1.006-2.428V18.7a3.422,3.422,0,0,1,1.006-2.428h.006a3.431,3.431,0,0,1,2.428-1.012h.544Zm-7.128,7.12H20.18a3.422,3.422,0,0,0-2.428,1.006v.006a3.429,3.429,0,0,0-1.012,2.428v76.314a3.455,3.455,0,0,0,3.44,3.44H76.662a3.443,3.443,0,0,0,3.439-3.44V101.6H27.307a6.56,6.56,0,0,1-4.65-1.933l0,0a6.567,6.567,0,0,1-1.936-4.648V22.385h0ZM83.245,101.6v.537a6.555,6.555,0,0,1-1.933,4.644l-.006.006a6.562,6.562,0,0,1-4.644,1.933H20.181a6.6,6.6,0,0,1-6.583-6.583V25.824a6.562,6.562,0,0,1,1.933-4.65l0,0a6.567,6.567,0,0,1,4.648-1.936h.544V18.7a6.567,6.567,0,0,1,1.936-4.648l0,0a6.562,6.562,0,0,1,4.65-1.933h.544v-.537a6.567,6.567,0,0,1,1.936-4.648l0,0A6.562,6.562,0,0,1,34.435,5H80.776l.437.437.014.013.014.014.014.014L97.042,21.263l.461.461V87.9a6.562,6.562,0,0,1-1.933,4.65l0,0a6.567,6.567,0,0,1-4.647,1.936h-.545v.537a6.555,6.555,0,0,1-1.933,4.644v.006a6.562,6.562,0,0,1-4.65,1.933h-.545ZM41.068,31.2H63.752a1.572,1.572,0,0,0,0-3.144H41.068a1.572,1.572,0,0,0,0,3.144Zm0-8.3h17.3a1.572,1.572,0,0,0,0-3.144h-17.3a1.572,1.572,0,0,0,0,3.144ZM75.406,48.147a18,18,0,1,0,5.272,12.729,17.947,17.947,0,0,0-5.272-12.729h0ZM62.677,39.731a21.145,21.145,0,1,0,14.951,6.193,21.078,21.078,0,0,0-14.951-6.193Zm1.314,24.7,5.566-3.213v0l.006,0a.35.35,0,0,0,.19-.345.416.416,0,0,0-.041-.2.4.4,0,0,0-.109-.12l-5.611-3.238v0L58.43,54.1a.4.4,0,0,0-.406,0,.4.4,0,0,0-.149.144.4.4,0,0,0-.041.2V67.3a.423.423,0,0,0,.041.2.4.4,0,0,0,.149.144.4.4,0,0,0,.406,0l5.479-3.163.082-.051Zm7.138-.5v0a3.513,3.513,0,0,0,.109-6.042l-.109-.069-5.566-3.213v0l-5.572-3.216a3.525,3.525,0,0,0-5.3,3.057V67.3a3.515,3.515,0,0,0,5.3,3.057L65.475,67.2l.088-.047,5.566-3.214Z" transform="translate(-13.598 -4.999)" fill="#8ba8ba" fill-rule="evenodd"/>
</svg>
