<svg xmlns="http://www.w3.org/2000/svg" width="21.262" height="12.044" viewBox="0 0 21.262 12.044">
  <g id="WP-arrow-down" transform="translate(0.592 0.5)">
    <g id="Page-1" transform="translate(20.086 11.047) rotate(180)">
      <g id="Dribbble-Light-Preview" transform="translate(0 0.002)">
        <g id="icons" transform="translate(0 0)">
          <path id="arrow_up-_337_" data-name="arrow_up-[#337]" d="M223.793,6534.677h0a1.064,1.064,0,0,0,0-1.466l-8.3-8.6a1.956,1.956,0,0,0-2.839,0l-8.361,8.657a1.077,1.077,0,0,0-.01,1.466.993.993,0,0,0,1.431.012l7.65-7.936a.988.988,0,0,1,1.42,0l7.59,7.864a.97.97,0,0,0,1.419,0" transform="translate(-204 -6524.002)" fill="#4e4e4e" stroke="#4e4e4e" stroke-width="1" fill-rule="evenodd"/>
        </g>
      </g>
    </g>
  </g>
</svg>
